<svg width="16" height="16" viewBox="0 0 16 16" fill="none" xmlns="http://www.w3.org/2000/svg">
<path d="M8.19522 3.52859C8.45557 3.26824 8.87768 3.26824 9.13803 3.52859L13.138 7.52859C13.2631 7.65362 13.3333 7.82319 13.3333 8C13.3333 8.17681 13.2631 8.34638 13.138 8.4714L9.13803 12.4714C8.87768 12.7318 8.45557 12.7318 8.19522 12.4714C7.93487 12.2111 7.93487 11.7889 8.19522 11.5286L11.0571 8.66667L3.33329 8.66667C2.9651 8.66667 2.66663 8.36819 2.66663 8C2.66663 7.63181 2.9651 7.33333 3.33329 7.33333L11.0571 7.33333L8.19522 4.4714C7.93487 4.21105 7.93487 3.78894 8.19522 3.52859Z" fill="#4D5474"/>
</svg>
