<svg width="16" height="16" viewBox="0 0 16 16" fill="none" xmlns="http://www.w3.org/2000/svg">
<path d="M7.8047 3.52859C8.06505 3.78894 8.06505 4.21105 7.8047 4.4714L4.94277 7.33333H12.6666C13.0348 7.33333 13.3333 7.63181 13.3333 8C13.3333 8.36819 13.0348 8.66666 12.6666 8.66666H4.94277L7.8047 11.5286C8.06505 11.7889 8.06505 12.2111 7.8047 12.4714C7.54435 12.7318 7.12224 12.7318 6.86189 12.4714L2.86189 8.4714C2.73686 8.34638 2.66663 8.17681 2.66663 8C2.66663 7.82319 2.73686 7.65362 2.86189 7.52859L6.86189 3.52859C7.12224 3.26824 7.54435 3.26824 7.8047 3.52859Z" fill="#4D5474" fill-opacity="0.4"/>
</svg>
