<svg width="1200" height="177" viewBox="0 0 1200 177" fill="none" xmlns="http://www.w3.org/2000/svg">
<path fill-rule="evenodd" clip-rule="evenodd" d="M188 63C197.941 63 206 54.9411 206 45H368C372.418 45 376 48.5817 376 53V169C376 173.418 372.418 177 368 177H8C3.58172 177 0 173.418 0 169V53C0 48.5817 3.58172 45 8 45H170C170 54.9411 178.059 63 188 63Z" fill="#F0F6FC"/>
<path d="M179.379 88.6V97H168.591V88.6H170.127V95.68H173.223V88.6H174.759V95.68H177.843V88.6H179.379ZM188.507 95.056H184.307L183.479 97H181.871L185.651 88.6H187.187L190.979 97H189.347L188.507 95.056ZM187.991 93.832L186.407 90.16L184.835 93.832H187.991ZM199.167 89.92H195.003L195.015 97H193.479V88.6H199.179L199.167 89.92ZM208.459 88.6V97H206.899V89.908H205.123V88.6H208.459Z" fill="#2C1EF5"/>
<path d="M55.1393 123.108C53.8913 123.108 52.7573 122.832 51.7373 122.28C50.7293 121.716 49.9373 120.948 49.3613 119.976C48.7973 119.004 48.5153 117.912 48.5153 116.7C48.5153 115.488 48.7973 114.396 49.3613 113.424C49.9373 112.452 50.7293 111.69 51.7373 111.138C52.7573 110.574 53.8913 110.292 55.1393 110.292C56.3873 110.292 57.5093 110.568 58.5053 111.12C59.5133 111.672 60.3053 112.44 60.8813 113.424C61.4573 114.396 61.7453 115.488 61.7453 116.7C61.7453 117.912 61.4573 119.01 60.8813 119.994C60.3053 120.966 59.5133 121.728 58.5053 122.28C57.5093 122.832 56.3873 123.108 55.1393 123.108ZM55.1393 121.92C56.1353 121.92 57.0353 121.698 57.8393 121.254C58.6433 120.798 59.2733 120.174 59.7293 119.382C60.1853 118.578 60.4133 117.684 60.4133 116.7C60.4133 115.716 60.1853 114.828 59.7293 114.036C59.2733 113.232 58.6433 112.608 57.8393 112.164C57.0353 111.708 56.1353 111.48 55.1393 111.48C54.1433 111.48 53.2373 111.708 52.4213 112.164C51.6173 112.608 50.9813 113.232 50.5133 114.036C50.0573 114.828 49.8293 115.716 49.8293 116.7C49.8293 117.684 50.0573 118.578 50.5133 119.382C50.9813 120.174 51.6173 120.798 52.4213 121.254C53.2373 121.698 54.1433 121.92 55.1393 121.92ZM69.2078 113.766C70.0838 113.766 70.8638 113.964 71.5478 114.36C72.2438 114.744 72.7838 115.29 73.1678 115.998C73.5518 116.694 73.7438 117.492 73.7438 118.392C73.7438 119.316 73.5398 120.138 73.1318 120.858C72.7358 121.566 72.1778 122.118 71.4578 122.514C70.7378 122.91 69.9098 123.108 68.9738 123.108C67.4018 123.108 66.1838 122.556 65.3198 121.452C64.4558 120.348 64.0238 118.824 64.0238 116.88C64.0238 114.852 64.4078 113.298 65.1758 112.218C65.9558 111.138 67.1678 110.406 68.8118 110.022L73.0598 109.05L73.2758 110.22L69.2798 111.138C67.9238 111.438 66.9278 111.972 66.2918 112.74C65.6558 113.496 65.3078 114.618 65.2478 116.106C65.6318 115.374 66.1658 114.804 66.8498 114.396C67.5338 113.976 68.3198 113.766 69.2078 113.766ZM69.0098 122.046C69.6698 122.046 70.2578 121.896 70.7738 121.596C71.3018 121.284 71.7098 120.852 71.9978 120.3C72.2978 119.748 72.4478 119.124 72.4478 118.428C72.4478 117.732 72.3038 117.12 72.0158 116.592C71.7278 116.064 71.3198 115.656 70.7918 115.368C70.2758 115.068 69.6818 114.918 69.0098 114.918C68.3378 114.918 67.7378 115.068 67.2098 115.368C66.6938 115.656 66.2858 116.064 65.9858 116.592C65.6978 117.12 65.5538 117.732 65.5538 118.428C65.5538 119.124 65.6978 119.748 65.9858 120.3C66.2858 120.852 66.6998 121.284 67.2278 121.596C67.7558 121.896 68.3498 122.046 69.0098 122.046ZM80.443 123.09C79.507 123.09 78.667 122.886 77.923 122.478C77.191 122.07 76.615 121.5 76.195 120.768C75.775 120.024 75.565 119.19 75.565 118.266C75.565 117.342 75.775 116.514 76.195 115.782C76.615 115.05 77.191 114.48 77.923 114.072C78.667 113.664 79.507 113.46 80.443 113.46C81.259 113.46 81.985 113.622 82.621 113.946C83.269 114.258 83.779 114.72 84.151 115.332L83.197 115.98C82.885 115.512 82.489 115.164 82.009 114.936C81.529 114.696 81.007 114.576 80.443 114.576C79.759 114.576 79.141 114.732 78.589 115.044C78.049 115.344 77.623 115.776 77.311 116.34C77.011 116.904 76.861 117.546 76.861 118.266C76.861 118.998 77.011 119.646 77.311 120.21C77.623 120.762 78.049 121.194 78.589 121.506C79.141 121.806 79.759 121.956 80.443 121.956C81.007 121.956 81.529 121.842 82.009 121.614C82.489 121.386 82.885 121.038 83.197 120.57L84.151 121.218C83.779 121.83 83.269 122.298 82.621 122.622C81.973 122.934 81.247 123.09 80.443 123.09ZM94.531 113.532L89.797 124.134C89.413 125.022 88.969 125.652 88.465 126.024C87.961 126.396 87.355 126.582 86.647 126.582C86.191 126.582 85.765 126.51 85.369 126.366C84.973 126.222 84.631 126.006 84.343 125.718L84.937 124.764C85.417 125.244 85.993 125.484 86.665 125.484C87.097 125.484 87.463 125.364 87.763 125.124C88.075 124.884 88.363 124.476 88.627 123.9L89.041 122.982L84.811 113.532H86.143L89.707 121.578L93.271 113.532H94.531ZM104.275 118.788H102.223V123H100.945V118.788H98.8932L95.9952 123H94.4652L97.8672 118.122L94.7352 113.532H96.1212L98.8932 117.69H100.945V113.532H102.223V117.69H104.275L107.065 113.532H108.451L105.319 118.14L108.721 123H107.191L104.275 118.788ZM120.082 121.884V125.286H118.876V123H110.398V125.286H109.192V121.884H109.732C110.368 121.848 110.8 121.38 111.028 120.48C111.256 119.58 111.412 118.32 111.496 116.7L111.622 113.532H118.606V121.884H120.082ZM112.666 116.772C112.606 118.116 112.492 119.226 112.324 120.102C112.156 120.966 111.856 121.56 111.424 121.884H117.328V114.666H112.774L112.666 116.772ZM130.853 118.662H122.933C123.005 119.646 123.383 120.444 124.067 121.056C124.751 121.656 125.615 121.956 126.659 121.956C127.247 121.956 127.787 121.854 128.279 121.65C128.771 121.434 129.197 121.122 129.557 120.714L130.277 121.542C129.857 122.046 129.329 122.43 128.693 122.694C128.069 122.958 127.379 123.09 126.623 123.09C125.651 123.09 124.787 122.886 124.031 122.478C123.287 122.058 122.705 121.482 122.285 120.75C121.865 120.018 121.655 119.19 121.655 118.266C121.655 117.342 121.853 116.514 122.249 115.782C122.657 115.05 123.209 114.48 123.905 114.072C124.613 113.664 125.405 113.46 126.281 113.46C127.157 113.46 127.943 113.664 128.639 114.072C129.335 114.48 129.881 115.05 130.277 115.782C130.673 116.502 130.871 117.33 130.871 118.266L130.853 118.662ZM126.281 114.558C125.369 114.558 124.601 114.852 123.977 115.44C123.365 116.016 123.017 116.772 122.933 117.708H129.647C129.563 116.772 129.209 116.016 128.585 115.44C127.973 114.852 127.205 114.558 126.281 114.558ZM133.7 113.532H134.978V117.726H140.936V113.532H142.214V123H140.936V118.824H134.978V123H133.7V113.532ZM145.846 113.532H147.124V121.056L153.442 113.532H154.576V123H153.298V115.476L146.998 123H145.846V113.532ZM166.519 118.662H158.599C158.671 119.646 159.049 120.444 159.733 121.056C160.417 121.656 161.281 121.956 162.325 121.956C162.913 121.956 163.453 121.854 163.945 121.65C164.437 121.434 164.863 121.122 165.223 120.714L165.943 121.542C165.523 122.046 164.995 122.43 164.359 122.694C163.735 122.958 163.045 123.09 162.289 123.09C161.317 123.09 160.453 122.886 159.697 122.478C158.953 122.058 158.371 121.482 157.951 120.75C157.531 120.018 157.321 119.19 157.321 118.266C157.321 117.342 157.519 116.514 157.915 115.782C158.323 115.05 158.875 114.48 159.571 114.072C160.279 113.664 161.071 113.46 161.947 113.46C162.823 113.46 163.609 113.664 164.305 114.072C165.001 114.48 165.547 115.05 165.943 115.782C166.339 116.502 166.537 117.33 166.537 118.266L166.519 118.662ZM161.947 114.558C161.035 114.558 160.267 114.852 159.643 115.44C159.031 116.016 158.683 116.772 158.599 117.708H165.313C165.229 116.772 164.875 116.016 164.251 115.44C163.639 114.852 162.871 114.558 161.947 114.558ZM182.573 113.532V123H181.295V114.666H175.355V123H174.077V113.532H182.573ZM191.084 113.46C191.972 113.46 192.776 113.664 193.496 114.072C194.216 114.468 194.78 115.032 195.188 115.764C195.596 116.496 195.8 117.33 195.8 118.266C195.8 119.214 195.596 120.054 195.188 120.786C194.78 121.518 194.216 122.088 193.496 122.496C192.788 122.892 191.984 123.09 191.084 123.09C190.316 123.09 189.62 122.934 188.996 122.622C188.384 122.298 187.88 121.83 187.484 121.218V126.492H186.206V113.532H187.43V115.404C187.814 114.78 188.318 114.3 188.942 113.964C189.578 113.628 190.292 113.46 191.084 113.46ZM190.994 121.956C191.654 121.956 192.254 121.806 192.794 121.506C193.334 121.194 193.754 120.756 194.054 120.192C194.366 119.628 194.522 118.986 194.522 118.266C194.522 117.546 194.366 116.91 194.054 116.358C193.754 115.794 193.334 115.356 192.794 115.044C192.254 114.732 191.654 114.576 190.994 114.576C190.322 114.576 189.716 114.732 189.176 115.044C188.648 115.356 188.228 115.794 187.916 116.358C187.616 116.91 187.466 117.546 187.466 118.266C187.466 118.986 187.616 119.628 187.916 120.192C188.228 120.756 188.648 121.194 189.176 121.506C189.716 121.806 190.322 121.956 190.994 121.956ZM202.452 123.09C201.54 123.09 200.718 122.886 199.986 122.478C199.254 122.058 198.678 121.482 198.258 120.75C197.838 120.018 197.628 119.19 197.628 118.266C197.628 117.342 197.838 116.514 198.258 115.782C198.678 115.05 199.254 114.48 199.986 114.072C200.718 113.664 201.54 113.46 202.452 113.46C203.364 113.46 204.186 113.664 204.918 114.072C205.65 114.48 206.22 115.05 206.628 115.782C207.048 116.514 207.258 117.342 207.258 118.266C207.258 119.19 207.048 120.018 206.628 120.75C206.22 121.482 205.65 122.058 204.918 122.478C204.186 122.886 203.364 123.09 202.452 123.09ZM202.452 121.956C203.124 121.956 203.724 121.806 204.252 121.506C204.792 121.194 205.212 120.756 205.512 120.192C205.812 119.628 205.962 118.986 205.962 118.266C205.962 117.546 205.812 116.904 205.512 116.34C205.212 115.776 204.792 115.344 204.252 115.044C203.724 114.732 203.124 114.576 202.452 114.576C201.78 114.576 201.174 114.732 200.634 115.044C200.106 115.344 199.686 115.776 199.374 116.34C199.074 116.904 198.924 117.546 198.924 118.266C198.924 118.986 199.074 119.628 199.374 120.192C199.686 120.756 200.106 121.194 200.634 121.506C201.174 121.806 201.78 121.956 202.452 121.956ZM218.269 118.662H210.349C210.421 119.646 210.799 120.444 211.483 121.056C212.167 121.656 213.031 121.956 214.075 121.956C214.663 121.956 215.203 121.854 215.695 121.65C216.187 121.434 216.613 121.122 216.973 120.714L217.693 121.542C217.273 122.046 216.745 122.43 216.109 122.694C215.485 122.958 214.795 123.09 214.039 123.09C213.067 123.09 212.203 122.886 211.447 122.478C210.703 122.058 210.121 121.482 209.701 120.75C209.281 120.018 209.071 119.19 209.071 118.266C209.071 117.342 209.269 116.514 209.665 115.782C210.073 115.05 210.625 114.48 211.321 114.072C212.029 113.664 212.821 113.46 213.697 113.46C214.573 113.46 215.359 113.664 216.055 114.072C216.751 114.48 217.297 115.05 217.693 115.782C218.089 116.502 218.287 117.33 218.287 118.266L218.269 118.662ZM213.697 114.558C212.785 114.558 212.017 114.852 211.393 115.44C210.781 116.016 210.433 116.772 210.349 117.708H217.063C216.979 116.772 216.625 116.016 216.001 115.44C215.389 114.852 214.621 114.558 213.697 114.558ZM224.554 118.788H222.394V123H221.116V113.532H222.394V117.69H224.572L227.902 113.532H229.288L225.562 118.122L229.558 123H228.046L224.554 118.788ZM238.041 114.666H234.459V123H233.181V114.666H229.599V113.532H238.041V114.666ZM243.147 113.46C244.383 113.46 245.331 113.772 245.991 114.396C246.651 115.008 246.981 115.92 246.981 117.132V123H245.757V121.524C245.469 122.016 245.043 122.4 244.479 122.676C243.927 122.952 243.267 123.09 242.499 123.09C241.443 123.09 240.603 122.838 239.979 122.334C239.355 121.83 239.043 121.164 239.043 120.336C239.043 119.532 239.331 118.884 239.907 118.392C240.495 117.9 241.425 117.654 242.697 117.654H245.703V117.078C245.703 116.262 245.475 115.644 245.019 115.224C244.563 114.792 243.897 114.576 243.021 114.576C242.421 114.576 241.845 114.678 241.293 114.882C240.741 115.074 240.267 115.344 239.871 115.692L239.295 114.738C239.775 114.33 240.351 114.018 241.023 113.802C241.695 113.574 242.403 113.46 243.147 113.46ZM242.697 122.082C243.417 122.082 244.035 121.92 244.551 121.596C245.067 121.26 245.451 120.78 245.703 120.156V118.608H242.733C241.113 118.608 240.303 119.172 240.303 120.3C240.303 120.852 240.513 121.29 240.933 121.614C241.353 121.926 241.941 122.082 242.697 122.082ZM255.094 113.532H256.372V121.056L262.69 113.532H263.824V123H262.546V115.476L256.246 123H255.094V113.532ZM282.062 121.884V125.376H280.856V123H272.198V113.532H273.476V121.884H279.254V113.532H280.532V121.884H282.062ZM292.783 118.662H284.863C284.935 119.646 285.313 120.444 285.997 121.056C286.681 121.656 287.545 121.956 288.589 121.956C289.177 121.956 289.717 121.854 290.209 121.65C290.701 121.434 291.127 121.122 291.487 120.714L292.207 121.542C291.787 122.046 291.259 122.43 290.623 122.694C289.999 122.958 289.309 123.09 288.553 123.09C287.581 123.09 286.717 122.886 285.961 122.478C285.217 122.058 284.635 121.482 284.215 120.75C283.795 120.018 283.585 119.19 283.585 118.266C283.585 117.342 283.783 116.514 284.179 115.782C284.587 115.05 285.139 114.48 285.835 114.072C286.543 113.664 287.335 113.46 288.211 113.46C289.087 113.46 289.873 113.664 290.569 114.072C291.265 114.48 291.811 115.05 292.207 115.782C292.603 116.502 292.801 117.33 292.801 118.266L292.783 118.662ZM288.211 114.558C287.299 114.558 286.531 114.852 285.907 115.44C285.295 116.016 284.947 116.772 284.863 117.708H291.577C291.493 116.772 291.139 116.016 290.515 115.44C289.903 114.852 289.135 114.558 288.211 114.558ZM303.176 113.532V123H301.898V114.666H297.362L297.236 117.006C297.14 118.974 296.912 120.486 296.552 121.542C296.192 122.598 295.55 123.126 294.626 123.126C294.374 123.126 294.068 123.078 293.708 122.982L293.798 121.884C294.014 121.932 294.164 121.956 294.248 121.956C294.74 121.956 295.112 121.728 295.364 121.272C295.616 120.816 295.784 120.252 295.868 119.58C295.952 118.908 296.024 118.02 296.084 116.916L296.246 113.532H303.176ZM315.089 118.662H307.169C307.241 119.646 307.619 120.444 308.303 121.056C308.987 121.656 309.851 121.956 310.895 121.956C311.483 121.956 312.023 121.854 312.515 121.65C313.007 121.434 313.433 121.122 313.793 120.714L314.513 121.542C314.093 122.046 313.565 122.43 312.929 122.694C312.305 122.958 311.615 123.09 310.859 123.09C309.887 123.09 309.023 122.886 308.267 122.478C307.523 122.058 306.941 121.482 306.521 120.75C306.101 120.018 305.891 119.19 305.891 118.266C305.891 117.342 306.089 116.514 306.485 115.782C306.893 115.05 307.445 114.48 308.141 114.072C308.849 113.664 309.641 113.46 310.517 113.46C311.393 113.46 312.179 113.664 312.875 114.072C313.571 114.48 314.117 115.05 314.513 115.782C314.909 116.502 315.107 117.33 315.107 118.266L315.089 118.662ZM310.517 114.558C309.605 114.558 308.837 114.852 308.213 115.44C307.601 116.016 307.253 116.772 307.169 117.708H313.883C313.799 116.772 313.445 116.016 312.821 115.44C312.209 114.852 311.441 114.558 310.517 114.558ZM317.936 113.532H319.214V121.056L325.532 113.532H326.666V123H325.388V115.476L319.088 123H317.936V113.532ZM322.238 112.164C321.422 112.164 320.774 111.96 320.294 111.552C319.814 111.144 319.568 110.568 319.556 109.824H320.474C320.486 110.292 320.654 110.67 320.978 110.958C321.302 111.234 321.722 111.372 322.238 111.372C322.754 111.372 323.174 111.234 323.498 110.958C323.834 110.67 324.008 110.292 324.02 109.824H324.938C324.926 110.568 324.674 111.144 324.182 111.552C323.702 111.96 323.054 112.164 322.238 112.164Z" fill="#061150"/>
<circle cx="188" cy="45" r="6" fill="#0047FF"/>
<circle cx="188" cy="45" r="3" fill="white"/>
<path fill-rule="evenodd" clip-rule="evenodd" d="M600 63C609.941 63 618 54.9411 618 45H780C784.418 45 788 48.5817 788 53V169C788 173.418 784.418 177 780 177H420C415.582 177 412 173.418 412 169V53C412 48.5817 415.582 45 420 45H582C582 54.9411 590.059 63 600 63Z" fill="#F0F6FC"/>
<path d="M590.172 88.6V97H579.384V88.6H580.92V95.68H584.016V88.6H585.552V95.68H588.636V88.6H590.172ZM599.3 95.056H595.1L594.272 97H592.664L596.444 88.6H597.98L601.772 97H600.14L599.3 95.056ZM598.784 93.832L597.2 90.16L595.628 93.832H598.784ZM609.96 89.92H605.796L605.808 97H604.272V88.6H609.972L609.96 89.92ZM622.432 95.68V97H616.24V95.956L619.576 92.788C619.952 92.428 620.204 92.116 620.332 91.852C620.468 91.58 620.536 91.312 620.536 91.048C620.536 90.656 620.404 90.356 620.14 90.148C619.876 89.94 619.488 89.836 618.976 89.836C618.12 89.836 617.464 90.128 617.008 90.712L615.916 89.872C616.244 89.432 616.684 89.092 617.236 88.852C617.796 88.604 618.42 88.48 619.108 88.48C620.02 88.48 620.748 88.696 621.292 89.128C621.836 89.56 622.108 90.148 622.108 90.892C622.108 91.348 622.012 91.776 621.82 92.176C621.628 92.576 621.26 93.032 620.716 93.544L618.472 95.68H622.432Z" fill="#2C1EF5"/>
<path d="M498.477 110.4V123H497.163V111.552H489.189V123H487.875V110.4H498.477ZM506.328 123.09C505.416 123.09 504.594 122.886 503.862 122.478C503.13 122.058 502.554 121.482 502.134 120.75C501.714 120.018 501.504 119.19 501.504 118.266C501.504 117.342 501.714 116.514 502.134 115.782C502.554 115.05 503.13 114.48 503.862 114.072C504.594 113.664 505.416 113.46 506.328 113.46C507.24 113.46 508.062 113.664 508.794 114.072C509.526 114.48 510.096 115.05 510.504 115.782C510.924 116.514 511.134 117.342 511.134 118.266C511.134 119.19 510.924 120.018 510.504 120.75C510.096 121.482 509.526 122.058 508.794 122.478C508.062 122.886 507.24 123.09 506.328 123.09ZM506.328 121.956C507 121.956 507.6 121.806 508.128 121.506C508.668 121.194 509.088 120.756 509.388 120.192C509.688 119.628 509.838 118.986 509.838 118.266C509.838 117.546 509.688 116.904 509.388 116.34C509.088 115.776 508.668 115.344 508.128 115.044C507.6 114.732 507 114.576 506.328 114.576C505.656 114.576 505.05 114.732 504.51 115.044C503.982 115.344 503.562 115.776 503.25 116.34C502.95 116.904 502.8 117.546 502.8 118.266C502.8 118.986 502.95 119.628 503.25 120.192C503.562 120.756 503.982 121.194 504.51 121.506C505.05 121.806 505.656 121.956 506.328 121.956ZM523.047 121.884V125.286H521.841V123H513.363V125.286H512.157V121.884H512.697C513.333 121.848 513.765 121.38 513.993 120.48C514.221 119.58 514.377 118.32 514.461 116.7L514.587 113.532H521.571V121.884H523.047ZM515.631 116.772C515.571 118.116 515.457 119.226 515.289 120.102C515.121 120.966 514.821 121.56 514.389 121.884H520.293V114.666H515.739L515.631 116.772ZM534.034 113.532V123H532.756V114.666H526.816V123H525.538V113.532H534.034ZM537.667 113.532H538.945V121.056L545.263 113.532H546.397V123H545.119V115.476L538.819 123H537.667V113.532ZM554.019 123.09C553.083 123.09 552.243 122.886 551.499 122.478C550.767 122.07 550.191 121.5 549.771 120.768C549.351 120.024 549.141 119.19 549.141 118.266C549.141 117.342 549.351 116.514 549.771 115.782C550.191 115.05 550.767 114.48 551.499 114.072C552.243 113.664 553.083 113.46 554.019 113.46C554.835 113.46 555.561 113.622 556.197 113.946C556.845 114.258 557.355 114.72 557.727 115.332L556.773 115.98C556.461 115.512 556.065 115.164 555.585 114.936C555.105 114.696 554.583 114.576 554.019 114.576C553.335 114.576 552.717 114.732 552.165 115.044C551.625 115.344 551.199 115.776 550.887 116.34C550.587 116.904 550.437 117.546 550.437 118.266C550.437 118.998 550.587 119.646 550.887 120.21C551.199 120.762 551.625 121.194 552.165 121.506C552.717 121.806 553.335 121.956 554.019 121.956C554.583 121.956 555.105 121.842 555.585 121.614C556.065 121.386 556.461 121.038 556.773 120.57L557.727 121.218C557.355 121.83 556.845 122.298 556.197 122.622C555.549 122.934 554.823 123.09 554.019 123.09ZM563.46 113.46C564.696 113.46 565.644 113.772 566.304 114.396C566.964 115.008 567.294 115.92 567.294 117.132V123H566.07V121.524C565.782 122.016 565.356 122.4 564.792 122.676C564.24 122.952 563.58 123.09 562.812 123.09C561.756 123.09 560.916 122.838 560.292 122.334C559.668 121.83 559.356 121.164 559.356 120.336C559.356 119.532 559.644 118.884 560.22 118.392C560.808 117.9 561.738 117.654 563.01 117.654H566.016V117.078C566.016 116.262 565.788 115.644 565.332 115.224C564.876 114.792 564.21 114.576 563.334 114.576C562.734 114.576 562.158 114.678 561.606 114.882C561.054 115.074 560.58 115.344 560.184 115.692L559.608 114.738C560.088 114.33 560.664 114.018 561.336 113.802C562.008 113.574 562.716 113.46 563.46 113.46ZM563.01 122.082C563.73 122.082 564.348 121.92 564.864 121.596C565.38 121.26 565.764 120.78 566.016 120.156V118.608H563.046C561.426 118.608 560.616 119.172 560.616 120.3C560.616 120.852 560.826 121.29 561.246 121.614C561.666 121.926 562.254 122.082 563.01 122.082ZM570.696 113.532H571.974V117.726H577.932V113.532H579.21V123H577.932V118.824H571.974V123H570.696V113.532ZM582.842 113.532H584.12V121.056L590.438 113.532H591.572V123H590.294V115.476L583.994 123H582.842V113.532ZM603.515 118.662H595.595C595.667 119.646 596.045 120.444 596.729 121.056C597.413 121.656 598.277 121.956 599.321 121.956C599.909 121.956 600.449 121.854 600.941 121.65C601.433 121.434 601.859 121.122 602.219 120.714L602.939 121.542C602.519 122.046 601.991 122.43 601.355 122.694C600.731 122.958 600.041 123.09 599.285 123.09C598.313 123.09 597.449 122.886 596.693 122.478C595.949 122.058 595.367 121.482 594.947 120.75C594.527 120.018 594.317 119.19 594.317 118.266C594.317 117.342 594.515 116.514 594.911 115.782C595.319 115.05 595.871 114.48 596.567 114.072C597.275 113.664 598.067 113.46 598.943 113.46C599.819 113.46 600.605 113.664 601.301 114.072C601.997 114.48 602.543 115.05 602.939 115.782C603.335 116.502 603.533 117.33 603.533 118.266L603.515 118.662ZM598.943 114.558C598.031 114.558 597.263 114.852 596.639 115.44C596.027 116.016 595.679 116.772 595.595 117.708H602.309C602.225 116.772 601.871 116.016 601.247 115.44C600.635 114.852 599.867 114.558 598.943 114.558ZM620.307 121.884V125.286H619.101V123H610.623V125.286H609.417V121.884H609.957C610.593 121.848 611.025 121.38 611.253 120.48C611.481 119.58 611.637 118.32 611.721 116.7L611.847 113.532H618.831V121.884H620.307ZM612.891 116.772C612.831 118.116 612.717 119.226 612.549 120.102C612.381 120.966 612.081 121.56 611.649 121.884H617.553V114.666H612.999L612.891 116.772ZM626.703 123.09C625.791 123.09 624.969 122.886 624.237 122.478C623.505 122.058 622.929 121.482 622.509 120.75C622.089 120.018 621.879 119.19 621.879 118.266C621.879 117.342 622.089 116.514 622.509 115.782C622.929 115.05 623.505 114.48 624.237 114.072C624.969 113.664 625.791 113.46 626.703 113.46C627.615 113.46 628.437 113.664 629.169 114.072C629.901 114.48 630.471 115.05 630.879 115.782C631.299 116.514 631.509 117.342 631.509 118.266C631.509 119.19 631.299 120.018 630.879 120.75C630.471 121.482 629.901 122.058 629.169 122.478C628.437 122.886 627.615 123.09 626.703 123.09ZM626.703 121.956C627.375 121.956 627.975 121.806 628.503 121.506C629.043 121.194 629.463 120.756 629.763 120.192C630.063 119.628 630.213 118.986 630.213 118.266C630.213 117.546 630.063 116.904 629.763 116.34C629.463 115.776 629.043 115.344 628.503 115.044C627.975 114.732 627.375 114.576 626.703 114.576C626.031 114.576 625.425 114.732 624.885 115.044C624.357 115.344 623.937 115.776 623.625 116.34C623.325 116.904 623.175 117.546 623.175 118.266C623.175 118.986 623.325 119.628 623.625 120.192C623.937 120.756 624.357 121.194 624.885 121.506C625.425 121.806 626.031 121.956 626.703 121.956ZM640.937 114.666H635.519V123H634.241V113.532H640.937V114.666ZM646.25 123.09C645.338 123.09 644.516 122.886 643.784 122.478C643.052 122.058 642.476 121.482 642.056 120.75C641.636 120.018 641.426 119.19 641.426 118.266C641.426 117.342 641.636 116.514 642.056 115.782C642.476 115.05 643.052 114.48 643.784 114.072C644.516 113.664 645.338 113.46 646.25 113.46C647.162 113.46 647.984 113.664 648.716 114.072C649.448 114.48 650.018 115.05 650.426 115.782C650.846 116.514 651.056 117.342 651.056 118.266C651.056 119.19 650.846 120.018 650.426 120.75C650.018 121.482 649.448 122.058 648.716 122.478C647.984 122.886 647.162 123.09 646.25 123.09ZM646.25 121.956C646.922 121.956 647.522 121.806 648.05 121.506C648.59 121.194 649.01 120.756 649.31 120.192C649.61 119.628 649.76 118.986 649.76 118.266C649.76 117.546 649.61 116.904 649.31 116.34C649.01 115.776 648.59 115.344 648.05 115.044C647.522 114.732 646.922 114.576 646.25 114.576C645.578 114.576 644.972 114.732 644.432 115.044C643.904 115.344 643.484 115.776 643.172 116.34C642.872 116.904 642.722 117.546 642.722 118.266C642.722 118.986 642.872 119.628 643.172 120.192C643.484 120.756 643.904 121.194 644.432 121.506C644.972 121.806 645.578 121.956 646.25 121.956ZM659.818 118.104C661.102 118.404 661.744 119.178 661.744 120.426C661.744 121.254 661.438 121.89 660.826 122.334C660.214 122.778 659.302 123 658.09 123H653.788V113.532H657.964C659.044 113.532 659.89 113.742 660.502 114.162C661.114 114.582 661.42 115.182 661.42 115.962C661.42 116.478 661.276 116.922 660.988 117.294C660.712 117.654 660.322 117.924 659.818 118.104ZM655.03 117.744H657.874C658.606 117.744 659.164 117.606 659.548 117.33C659.944 117.054 660.142 116.652 660.142 116.124C660.142 115.596 659.944 115.2 659.548 114.936C659.164 114.672 658.606 114.54 657.874 114.54H655.03V117.744ZM658.036 121.992C658.852 121.992 659.464 121.86 659.872 121.596C660.28 121.332 660.484 120.918 660.484 120.354C660.484 119.79 660.298 119.376 659.926 119.112C659.554 118.836 658.966 118.698 658.162 118.698H655.03V121.992H658.036ZM668.645 123.09C667.733 123.09 666.911 122.886 666.179 122.478C665.447 122.058 664.871 121.482 664.451 120.75C664.031 120.018 663.821 119.19 663.821 118.266C663.821 117.342 664.031 116.514 664.451 115.782C664.871 115.05 665.447 114.48 666.179 114.072C666.911 113.664 667.733 113.46 668.645 113.46C669.557 113.46 670.379 113.664 671.111 114.072C671.843 114.48 672.413 115.05 672.821 115.782C673.241 116.514 673.451 117.342 673.451 118.266C673.451 119.19 673.241 120.018 672.821 120.75C672.413 121.482 671.843 122.058 671.111 122.478C670.379 122.886 669.557 123.09 668.645 123.09ZM668.645 121.956C669.317 121.956 669.917 121.806 670.445 121.506C670.985 121.194 671.405 120.756 671.705 120.192C672.005 119.628 672.155 118.986 672.155 118.266C672.155 117.546 672.005 116.904 671.705 116.34C671.405 115.776 670.985 115.344 670.445 115.044C669.917 114.732 669.317 114.576 668.645 114.576C667.973 114.576 667.367 114.732 666.827 115.044C666.299 115.344 665.879 115.776 665.567 116.34C665.267 116.904 665.117 117.546 665.117 118.266C665.117 118.986 665.267 119.628 665.567 120.192C665.879 120.756 666.299 121.194 666.827 121.506C667.367 121.806 667.973 121.956 668.645 121.956ZM681.06 113.46C681.948 113.46 682.752 113.664 683.472 114.072C684.192 114.468 684.756 115.032 685.164 115.764C685.572 116.496 685.776 117.33 685.776 118.266C685.776 119.214 685.572 120.054 685.164 120.786C684.756 121.518 684.192 122.088 683.472 122.496C682.764 122.892 681.96 123.09 681.06 123.09C680.292 123.09 679.596 122.934 678.972 122.622C678.36 122.298 677.856 121.83 677.46 121.218V126.492H676.182V113.532H677.406V115.404C677.79 114.78 678.294 114.3 678.918 113.964C679.554 113.628 680.268 113.46 681.06 113.46ZM680.97 121.956C681.63 121.956 682.23 121.806 682.77 121.506C683.31 121.194 683.73 120.756 684.03 120.192C684.342 119.628 684.498 118.986 684.498 118.266C684.498 117.546 684.342 116.91 684.03 116.358C683.73 115.794 683.31 115.356 682.77 115.044C682.23 114.732 681.63 114.576 680.97 114.576C680.298 114.576 679.692 114.732 679.152 115.044C678.624 115.356 678.204 115.794 677.892 116.358C677.592 116.91 677.442 117.546 677.442 118.266C677.442 118.986 677.592 119.628 677.892 120.192C678.204 120.756 678.624 121.194 679.152 121.506C679.692 121.806 680.298 121.956 680.97 121.956ZM691.727 113.46C692.963 113.46 693.911 113.772 694.571 114.396C695.231 115.008 695.561 115.92 695.561 117.132V123H694.337V121.524C694.049 122.016 693.623 122.4 693.059 122.676C692.507 122.952 691.847 123.09 691.079 123.09C690.023 123.09 689.183 122.838 688.559 122.334C687.935 121.83 687.623 121.164 687.623 120.336C687.623 119.532 687.911 118.884 688.487 118.392C689.075 117.9 690.005 117.654 691.277 117.654H694.283V117.078C694.283 116.262 694.055 115.644 693.599 115.224C693.143 114.792 692.477 114.576 691.601 114.576C691.001 114.576 690.425 114.678 689.873 114.882C689.321 115.074 688.847 115.344 688.451 115.692L687.875 114.738C688.355 114.33 688.931 114.018 689.603 113.802C690.275 113.574 690.983 113.46 691.727 113.46ZM691.277 122.082C691.997 122.082 692.615 121.92 693.131 121.596C693.647 121.26 694.031 120.78 694.283 120.156V118.608H691.313C689.693 118.608 688.883 119.172 688.883 120.3C688.883 120.852 689.093 121.29 689.513 121.614C689.933 121.926 690.521 122.082 691.277 122.082ZM703.674 113.532H704.952V121.056L711.27 113.532H712.404V123H711.126V115.476L704.826 123H703.674V113.532ZM518.595 142.104C519.879 142.404 520.521 143.178 520.521 144.426C520.521 145.254 520.215 145.89 519.603 146.334C518.991 146.778 518.079 147 516.867 147H512.565V137.532H516.741C517.821 137.532 518.667 137.742 519.279 138.162C519.891 138.582 520.197 139.182 520.197 139.962C520.197 140.478 520.053 140.922 519.765 141.294C519.489 141.654 519.099 141.924 518.595 142.104ZM513.807 141.744H516.651C517.383 141.744 517.941 141.606 518.325 141.33C518.721 141.054 518.919 140.652 518.919 140.124C518.919 139.596 518.721 139.2 518.325 138.936C517.941 138.672 517.383 138.54 516.651 138.54H513.807V141.744ZM516.813 145.992C517.629 145.992 518.241 145.86 518.649 145.596C519.057 145.332 519.261 144.918 519.261 144.354C519.261 143.79 519.075 143.376 518.703 143.112C518.331 142.836 517.743 142.698 516.939 142.698H513.807V145.992H516.813ZM527.494 140.88C528.682 140.892 529.588 141.156 530.212 141.672C530.836 142.188 531.148 142.932 531.148 143.904C531.148 144.912 530.812 145.686 530.14 146.226C529.468 146.766 528.508 147.03 527.26 147.018L523.516 147V137.532H524.794V140.844L527.494 140.88ZM532.732 137.532H534.01V147H532.732V137.532ZM527.188 146.046C528.064 146.058 528.724 145.884 529.168 145.524C529.624 145.152 529.852 144.612 529.852 143.904C529.852 143.208 529.63 142.692 529.186 142.356C528.742 142.02 528.076 141.846 527.188 141.834L524.794 141.798V146.01L527.188 146.046ZM541.609 147.09C540.673 147.09 539.833 146.886 539.089 146.478C538.357 146.07 537.781 145.5 537.361 144.768C536.941 144.024 536.731 143.19 536.731 142.266C536.731 141.342 536.941 140.514 537.361 139.782C537.781 139.05 538.357 138.48 539.089 138.072C539.833 137.664 540.673 137.46 541.609 137.46C542.425 137.46 543.151 137.622 543.787 137.946C544.435 138.258 544.945 138.72 545.317 139.332L544.363 139.98C544.051 139.512 543.655 139.164 543.175 138.936C542.695 138.696 542.173 138.576 541.609 138.576C540.925 138.576 540.307 138.732 539.755 139.044C539.215 139.344 538.789 139.776 538.477 140.34C538.177 140.904 538.027 141.546 538.027 142.266C538.027 142.998 538.177 143.646 538.477 144.21C538.789 144.762 539.215 145.194 539.755 145.506C540.307 145.806 540.925 145.956 541.609 145.956C542.173 145.956 542.695 145.842 543.175 145.614C543.655 145.386 544.051 145.038 544.363 144.57L545.317 145.218C544.945 145.83 544.435 146.298 543.787 146.622C543.139 146.934 542.413 147.09 541.609 147.09ZM554.276 138.666H550.694V147H549.416V138.666H545.834V137.532H554.276V138.666ZM559.382 137.46C560.618 137.46 561.566 137.772 562.226 138.396C562.886 139.008 563.216 139.92 563.216 141.132V147H561.992V145.524C561.704 146.016 561.278 146.4 560.714 146.676C560.162 146.952 559.502 147.09 558.734 147.09C557.678 147.09 556.838 146.838 556.214 146.334C555.59 145.83 555.278 145.164 555.278 144.336C555.278 143.532 555.566 142.884 556.142 142.392C556.73 141.9 557.66 141.654 558.932 141.654H561.938V141.078C561.938 140.262 561.71 139.644 561.254 139.224C560.798 138.792 560.132 138.576 559.256 138.576C558.656 138.576 558.08 138.678 557.528 138.882C556.976 139.074 556.502 139.344 556.106 139.692L555.53 138.738C556.01 138.33 556.586 138.018 557.258 137.802C557.93 137.574 558.638 137.46 559.382 137.46ZM558.932 146.082C559.652 146.082 560.27 145.92 560.786 145.596C561.302 145.26 561.686 144.78 561.938 144.156V142.608H558.968C557.348 142.608 556.538 143.172 556.538 144.3C556.538 144.852 556.748 145.29 557.168 145.614C557.588 145.926 558.176 146.082 558.932 146.082ZM572.648 142.104C573.932 142.404 574.574 143.178 574.574 144.426C574.574 145.254 574.268 145.89 573.656 146.334C573.044 146.778 572.132 147 570.92 147H566.618V137.532H570.794C571.874 137.532 572.72 137.742 573.332 138.162C573.944 138.582 574.25 139.182 574.25 139.962C574.25 140.478 574.106 140.922 573.818 141.294C573.542 141.654 573.152 141.924 572.648 142.104ZM567.86 141.744H570.704C571.436 141.744 571.994 141.606 572.378 141.33C572.774 141.054 572.972 140.652 572.972 140.124C572.972 139.596 572.774 139.2 572.378 138.936C571.994 138.672 571.436 138.54 570.704 138.54H567.86V141.744ZM570.866 145.992C571.682 145.992 572.294 145.86 572.702 145.596C573.11 145.332 573.314 144.918 573.314 144.354C573.314 143.79 573.128 143.376 572.756 143.112C572.384 142.836 571.796 142.698 570.992 142.698H567.86V145.992H570.866ZM585.309 137.532V147H584.031V138.666H579.495L579.369 141.006C579.273 142.974 579.045 144.486 578.685 145.542C578.325 146.598 577.683 147.126 576.759 147.126C576.507 147.126 576.201 147.078 575.841 146.982L575.931 145.884C576.147 145.932 576.297 145.956 576.381 145.956C576.873 145.956 577.245 145.728 577.497 145.272C577.749 144.816 577.917 144.252 578.001 143.58C578.085 142.908 578.157 142.02 578.217 140.916L578.379 137.532H585.309ZM597.222 142.662H589.302C589.374 143.646 589.752 144.444 590.436 145.056C591.12 145.656 591.984 145.956 593.028 145.956C593.616 145.956 594.156 145.854 594.648 145.65C595.14 145.434 595.566 145.122 595.926 144.714L596.646 145.542C596.226 146.046 595.698 146.43 595.062 146.694C594.438 146.958 593.748 147.09 592.992 147.09C592.02 147.09 591.156 146.886 590.4 146.478C589.656 146.058 589.074 145.482 588.654 144.75C588.234 144.018 588.024 143.19 588.024 142.266C588.024 141.342 588.222 140.514 588.618 139.782C589.026 139.05 589.578 138.48 590.274 138.072C590.982 137.664 591.774 137.46 592.65 137.46C593.526 137.46 594.312 137.664 595.008 138.072C595.704 138.48 596.25 139.05 596.646 139.782C597.042 140.502 597.24 141.33 597.24 142.266L597.222 142.662ZM592.65 138.558C591.738 138.558 590.97 138.852 590.346 139.44C589.734 140.016 589.386 140.772 589.302 141.708H596.016C595.932 140.772 595.578 140.016 594.954 139.44C594.342 138.852 593.574 138.558 592.65 138.558ZM600.069 137.532H601.347V141.726H607.305V137.532H608.583V147H607.305V142.824H601.347V147H600.069V137.532ZM612.215 137.532H613.493V145.056L619.811 137.532H620.945V147H619.667V139.476L613.367 147H612.215V137.532ZM632.888 142.662H624.968C625.04 143.646 625.418 144.444 626.102 145.056C626.786 145.656 627.65 145.956 628.694 145.956C629.282 145.956 629.822 145.854 630.314 145.65C630.806 145.434 631.232 145.122 631.592 144.714L632.312 145.542C631.892 146.046 631.364 146.43 630.728 146.694C630.104 146.958 629.414 147.09 628.658 147.09C627.686 147.09 626.822 146.886 626.066 146.478C625.322 146.058 624.74 145.482 624.32 144.75C623.9 144.018 623.69 143.19 623.69 142.266C623.69 141.342 623.888 140.514 624.284 139.782C624.692 139.05 625.244 138.48 625.94 138.072C626.648 137.664 627.44 137.46 628.316 137.46C629.192 137.46 629.978 137.664 630.674 138.072C631.37 138.48 631.916 139.05 632.312 139.782C632.708 140.502 632.906 141.33 632.906 142.266L632.888 142.662ZM628.316 138.558C627.404 138.558 626.636 138.852 626.012 139.44C625.4 140.016 625.052 140.772 624.968 141.708H631.682C631.598 140.772 631.244 140.016 630.62 139.44C630.008 138.852 629.24 138.558 628.316 138.558ZM644.406 147.09C643.47 147.09 642.63 146.886 641.886 146.478C641.154 146.07 640.578 145.5 640.158 144.768C639.738 144.024 639.528 143.19 639.528 142.266C639.528 141.342 639.738 140.514 640.158 139.782C640.578 139.05 641.154 138.48 641.886 138.072C642.63 137.664 643.47 137.46 644.406 137.46C645.222 137.46 645.948 137.622 646.584 137.946C647.232 138.258 647.742 138.72 648.114 139.332L647.16 139.98C646.848 139.512 646.452 139.164 645.972 138.936C645.492 138.696 644.97 138.576 644.406 138.576C643.722 138.576 643.104 138.732 642.552 139.044C642.012 139.344 641.586 139.776 641.274 140.34C640.974 140.904 640.824 141.546 640.824 142.266C640.824 142.998 640.974 143.646 641.274 144.21C641.586 144.762 642.012 145.194 642.552 145.506C643.104 145.806 643.722 145.956 644.406 145.956C644.97 145.956 645.492 145.842 645.972 145.614C646.452 145.386 646.848 145.038 647.16 144.57L648.114 145.218C647.742 145.83 647.232 146.298 646.584 146.622C645.936 146.934 645.21 147.09 644.406 147.09ZM657.735 137.532V147H656.457V143.058C655.365 143.538 654.291 143.778 653.235 143.778C652.095 143.778 651.207 143.52 650.571 143.004C649.935 142.476 649.617 141.69 649.617 140.646V137.532H650.895V140.574C650.895 141.282 651.123 141.822 651.579 142.194C652.035 142.554 652.665 142.734 653.469 142.734C654.357 142.734 655.353 142.5 656.457 142.032V137.532H657.735ZM669.644 142.662H661.724C661.796 143.646 662.174 144.444 662.858 145.056C663.542 145.656 664.406 145.956 665.45 145.956C666.038 145.956 666.578 145.854 667.07 145.65C667.562 145.434 667.988 145.122 668.348 144.714L669.068 145.542C668.648 146.046 668.12 146.43 667.484 146.694C666.86 146.958 666.17 147.09 665.414 147.09C664.442 147.09 663.578 146.886 662.822 146.478C662.078 146.058 661.496 145.482 661.076 144.75C660.656 144.018 660.446 143.19 660.446 142.266C660.446 141.342 660.644 140.514 661.04 139.782C661.448 139.05 662 138.48 662.696 138.072C663.404 137.664 664.196 137.46 665.072 137.46C665.948 137.46 666.734 137.664 667.43 138.072C668.126 138.48 668.672 139.05 669.068 139.782C669.464 140.502 669.662 141.33 669.662 142.266L669.644 142.662ZM665.072 138.558C664.16 138.558 663.392 138.852 662.768 139.44C662.156 140.016 661.808 140.772 661.724 141.708H668.438C668.354 140.772 668 140.016 667.376 139.44C666.764 138.852 665.996 138.558 665.072 138.558ZM678.729 138.666H675.147V147H673.869V138.666H670.287V137.532H678.729V138.666ZM683.835 137.46C685.071 137.46 686.019 137.772 686.679 138.396C687.339 139.008 687.669 139.92 687.669 141.132V147H686.445V145.524C686.157 146.016 685.731 146.4 685.167 146.676C684.615 146.952 683.955 147.09 683.187 147.09C682.131 147.09 681.291 146.838 680.667 146.334C680.043 145.83 679.731 145.164 679.731 144.336C679.731 143.532 680.019 142.884 680.595 142.392C681.183 141.9 682.113 141.654 683.385 141.654H686.391V141.078C686.391 140.262 686.163 139.644 685.707 139.224C685.251 138.792 684.585 138.576 683.709 138.576C683.109 138.576 682.533 138.678 681.981 138.882C681.429 139.074 680.955 139.344 680.559 139.692L679.983 138.738C680.463 138.33 681.039 138.018 681.711 137.802C682.383 137.574 683.091 137.46 683.835 137.46ZM683.385 146.082C684.105 146.082 684.723 145.92 685.239 145.596C685.755 145.26 686.139 144.78 686.391 144.156V142.608H683.421C681.801 142.608 680.991 143.172 680.991 144.3C680.991 144.852 681.201 145.29 681.621 145.614C682.041 145.926 682.629 146.082 683.385 146.082Z" fill="#061150"/>
<circle cx="600" cy="45" r="6" fill="#0047FF"/>
<circle cx="600" cy="45" r="3" fill="white"/>
<path fill-rule="evenodd" clip-rule="evenodd" d="M1012 63C1021.94 63 1030 54.9411 1030 45H1192C1196.42 45 1200 48.5817 1200 53V169C1200 173.418 1196.42 177 1192 177H832C827.582 177 824 173.418 824 169V53C824 48.5817 827.582 45 832 45H994C994 54.9411 1002.06 63 1012 63Z" fill="#F0F6FC"/>
<path d="M1002.17 88.6V97H991.384V88.6H992.92V95.68H996.016V88.6H997.552V95.68H1000.64V88.6H1002.17ZM1011.3 95.056H1007.1L1006.27 97H1004.66L1008.44 88.6H1009.98L1013.77 97H1012.14L1011.3 95.056ZM1010.78 93.832L1009.2 90.16L1007.63 93.832H1010.78ZM1021.96 89.92H1017.8L1017.81 97H1016.27V88.6H1021.97L1021.96 89.92ZM1031.92 92.068C1032.7 92.164 1033.29 92.428 1033.7 92.86C1034.11 93.292 1034.31 93.832 1034.31 94.48C1034.31 94.968 1034.19 95.412 1033.94 95.812C1033.69 96.212 1033.32 96.532 1032.81 96.772C1032.32 97.004 1031.71 97.12 1030.99 97.12C1030.39 97.12 1029.81 97.036 1029.25 96.868C1028.7 96.692 1028.22 96.452 1027.83 96.148L1028.5 94.936C1028.81 95.192 1029.18 95.396 1029.61 95.548C1030.05 95.692 1030.5 95.764 1030.96 95.764C1031.52 95.764 1031.95 95.652 1032.26 95.428C1032.58 95.196 1032.74 94.884 1032.74 94.492C1032.74 94.1 1032.59 93.796 1032.28 93.58C1031.99 93.356 1031.53 93.244 1030.92 93.244H1030.15V92.176L1032.06 89.908H1028.24V88.6H1033.96V89.644L1031.92 92.068Z" fill="#2C1EF5"/>
<path d="M909.849 121.848V125.826H908.607V123H897.609L897.591 125.826H896.349L896.367 121.848H896.997C897.825 121.8 898.401 121.146 898.725 119.886C899.049 118.614 899.247 116.814 899.319 114.486L899.463 110.4H907.959V121.848H909.849ZM900.507 114.612C900.447 116.532 900.297 118.116 900.057 119.364C899.829 120.6 899.439 121.428 898.887 121.848H906.645V111.552H900.615L900.507 114.612ZM920.277 118.662H912.357C912.429 119.646 912.807 120.444 913.491 121.056C914.175 121.656 915.039 121.956 916.083 121.956C916.671 121.956 917.211 121.854 917.703 121.65C918.195 121.434 918.621 121.122 918.981 120.714L919.701 121.542C919.281 122.046 918.753 122.43 918.117 122.694C917.493 122.958 916.803 123.09 916.047 123.09C915.075 123.09 914.211 122.886 913.455 122.478C912.711 122.058 912.129 121.482 911.709 120.75C911.289 120.018 911.079 119.19 911.079 118.266C911.079 117.342 911.277 116.514 911.673 115.782C912.081 115.05 912.633 114.48 913.329 114.072C914.037 113.664 914.829 113.46 915.705 113.46C916.581 113.46 917.367 113.664 918.063 114.072C918.759 114.48 919.305 115.05 919.701 115.782C920.097 116.502 920.295 117.33 920.295 118.266L920.277 118.662ZM915.705 114.558C914.793 114.558 914.025 114.852 913.401 115.44C912.789 116.016 912.441 116.772 912.357 117.708H919.071C918.987 116.772 918.633 116.016 918.009 115.44C917.397 114.852 916.629 114.558 915.705 114.558ZM929.362 114.666H925.78V123H924.502V114.666H920.92V113.532H929.362V114.666ZM934.468 113.46C935.704 113.46 936.652 113.772 937.312 114.396C937.972 115.008 938.302 115.92 938.302 117.132V123H937.078V121.524C936.79 122.016 936.364 122.4 935.8 122.676C935.248 122.952 934.588 123.09 933.82 123.09C932.764 123.09 931.924 122.838 931.3 122.334C930.676 121.83 930.364 121.164 930.364 120.336C930.364 119.532 930.652 118.884 931.228 118.392C931.816 117.9 932.746 117.654 934.018 117.654H937.024V117.078C937.024 116.262 936.796 115.644 936.34 115.224C935.884 114.792 935.218 114.576 934.342 114.576C933.742 114.576 933.166 114.678 932.614 114.882C932.062 115.074 931.588 115.344 931.192 115.692L930.616 114.738C931.096 114.33 931.672 114.018 932.344 113.802C933.016 113.574 933.724 113.46 934.468 113.46ZM934.018 122.082C934.738 122.082 935.356 121.92 935.872 121.596C936.388 121.26 936.772 120.78 937.024 120.156V118.608H934.054C932.434 118.608 931.624 119.172 931.624 120.3C931.624 120.852 931.834 121.29 932.254 121.614C932.674 121.926 933.262 122.082 934.018 122.082ZM949.444 113.532V123H948.166V114.666H943.63L943.504 117.006C943.408 118.974 943.18 120.486 942.82 121.542C942.46 122.598 941.818 123.126 940.894 123.126C940.642 123.126 940.336 123.078 939.976 122.982L940.066 121.884C940.282 121.932 940.432 121.956 940.516 121.956C941.008 121.956 941.38 121.728 941.632 121.272C941.884 120.816 942.052 120.252 942.136 119.58C942.22 118.908 942.292 118.02 942.352 116.916L942.514 113.532H949.444ZM957.145 116.88C958.333 116.892 959.233 117.156 959.845 117.672C960.469 118.188 960.781 118.932 960.781 119.904C960.781 120.912 960.445 121.686 959.773 122.226C959.113 122.766 958.153 123.03 956.893 123.018L953.077 123V113.532H954.355V116.844L957.145 116.88ZM956.821 122.046C957.697 122.058 958.357 121.884 958.801 121.524C959.257 121.152 959.485 120.612 959.485 119.904C959.485 119.208 959.263 118.692 958.819 118.356C958.375 118.02 957.709 117.846 956.821 117.834L954.355 117.798V122.01L956.821 122.046ZM963.219 113.532H964.497V117.726H970.455V113.532H971.733V123H970.455V118.824H964.497V123H963.219V113.532ZM979.344 116.88C980.532 116.892 981.438 117.156 982.062 117.672C982.686 118.188 982.998 118.932 982.998 119.904C982.998 120.912 982.662 121.686 981.99 122.226C981.318 122.766 980.358 123.03 979.11 123.018L975.366 123V113.532H976.644V116.844L979.344 116.88ZM984.582 113.532H985.86V123H984.582V113.532ZM979.038 122.046C979.914 122.058 980.574 121.884 981.018 121.524C981.474 121.152 981.702 120.612 981.702 119.904C981.702 119.208 981.48 118.692 981.036 118.356C980.592 118.02 979.926 117.846 979.038 117.834L976.644 117.798V122.01L979.038 122.046ZM989.499 113.532H990.777V121.056L997.095 113.532H998.229V123H996.951V115.476L990.651 123H989.499V113.532ZM993.801 112.164C992.985 112.164 992.337 111.96 991.857 111.552C991.377 111.144 991.131 110.568 991.119 109.824H992.037C992.049 110.292 992.217 110.67 992.541 110.958C992.865 111.234 993.285 111.372 993.801 111.372C994.317 111.372 994.737 111.234 995.061 110.958C995.397 110.67 995.571 110.292 995.583 109.824H996.501C996.489 110.568 996.237 111.144 995.745 111.552C995.265 111.96 994.617 112.164 993.801 112.164ZM1009.86 113.46C1011.1 113.46 1012.04 113.772 1012.7 114.396C1013.36 115.008 1013.69 115.92 1013.69 117.132V123H1012.47V121.524C1012.18 122.016 1011.76 122.4 1011.19 122.676C1010.64 122.952 1009.98 123.09 1009.21 123.09C1008.16 123.09 1007.32 122.838 1006.69 122.334C1006.07 121.83 1005.76 121.164 1005.76 120.336C1005.76 119.532 1006.04 118.884 1006.62 118.392C1007.21 117.9 1008.14 117.654 1009.41 117.654H1012.42V117.078C1012.42 116.262 1012.19 115.644 1011.73 115.224C1011.28 114.792 1010.61 114.576 1009.73 114.576C1009.13 114.576 1008.56 114.678 1008.01 114.882C1007.45 115.074 1006.98 115.344 1006.58 115.692L1006.01 114.738C1006.49 114.33 1007.06 114.018 1007.74 113.802C1008.41 113.574 1009.12 113.46 1009.86 113.46ZM1009.41 122.082C1010.13 122.082 1010.75 121.92 1011.26 121.596C1011.78 121.26 1012.16 120.78 1012.42 120.156V118.608H1009.45C1007.83 118.608 1007.02 119.172 1007.02 120.3C1007.02 120.852 1007.23 121.29 1007.65 121.614C1008.07 121.926 1008.65 122.082 1009.41 122.082ZM1017.1 113.532H1018.37V117.726H1024.33V113.532H1025.61V123H1024.33V118.824H1018.37V123H1017.1V113.532ZM1032.5 113.46C1033.74 113.46 1034.68 113.772 1035.34 114.396C1036 115.008 1036.33 115.92 1036.33 117.132V123H1035.11V121.524C1034.82 122.016 1034.4 122.4 1033.83 122.676C1033.28 122.952 1032.62 123.09 1031.85 123.09C1030.8 123.09 1029.96 122.838 1029.33 122.334C1028.71 121.83 1028.4 121.164 1028.4 120.336C1028.4 119.532 1028.68 118.884 1029.26 118.392C1029.85 117.9 1030.78 117.654 1032.05 117.654H1035.06V117.078C1035.06 116.262 1034.83 115.644 1034.37 115.224C1033.92 114.792 1033.25 114.576 1032.37 114.576C1031.77 114.576 1031.2 114.678 1030.65 114.882C1030.09 115.074 1029.62 115.344 1029.22 115.692L1028.65 114.738C1029.13 114.33 1029.7 114.018 1030.38 113.802C1031.05 113.574 1031.76 113.46 1032.5 113.46ZM1032.05 122.082C1032.77 122.082 1033.39 121.92 1033.9 121.596C1034.42 121.26 1034.8 120.78 1035.06 120.156V118.608H1032.09C1030.47 118.608 1029.66 119.172 1029.66 120.3C1029.66 120.852 1029.87 121.29 1030.29 121.614C1030.71 121.926 1031.29 122.082 1032.05 122.082ZM1047.48 113.532V123H1046.2V114.666H1041.66L1041.54 117.006C1041.44 118.974 1041.21 120.486 1040.85 121.542C1040.49 122.598 1039.85 123.126 1038.93 123.126C1038.67 123.126 1038.37 123.078 1038.01 122.982L1038.1 121.884C1038.31 121.932 1038.46 121.956 1038.55 121.956C1039.04 121.956 1039.41 121.728 1039.66 121.272C1039.92 120.816 1040.08 120.252 1040.17 119.58C1040.25 118.908 1040.32 118.02 1040.38 116.916L1040.55 113.532H1047.48ZM1051.11 113.532H1052.39V121.056L1058.71 113.532H1059.84V123H1058.56V115.476L1052.26 123H1051.11V113.532ZM1067.92 118.068C1068.59 118.224 1069.11 118.494 1069.47 118.878C1069.84 119.262 1070.02 119.73 1070.02 120.282C1070.02 120.834 1069.83 121.326 1069.45 121.758C1069.08 122.19 1068.57 122.526 1067.92 122.766C1067.27 122.994 1066.56 123.108 1065.78 123.108C1065.09 123.108 1064.42 123.012 1063.76 122.82C1063.1 122.616 1062.52 122.322 1062.03 121.938L1062.46 120.984C1062.9 121.308 1063.4 121.56 1063.98 121.74C1064.55 121.92 1065.13 122.01 1065.72 122.01C1066.6 122.01 1067.31 121.848 1067.86 121.524C1068.43 121.188 1068.71 120.738 1068.71 120.174C1068.71 119.67 1068.48 119.28 1068.03 119.004C1067.57 118.716 1066.95 118.572 1066.15 118.572H1064.53V117.636H1066.08C1066.79 117.636 1067.36 117.504 1067.79 117.24C1068.22 116.964 1068.44 116.598 1068.44 116.142C1068.44 115.638 1068.19 115.242 1067.7 114.954C1067.22 114.666 1066.59 114.522 1065.81 114.522C1064.79 114.522 1063.78 114.78 1062.79 115.296L1062.43 114.306C1063.56 113.718 1064.73 113.424 1065.94 113.424C1066.66 113.424 1067.31 113.532 1067.88 113.748C1068.47 113.952 1068.93 114.246 1069.25 114.63C1069.59 115.014 1069.75 115.458 1069.75 115.962C1069.75 116.442 1069.59 116.868 1069.25 117.24C1068.93 117.612 1068.48 117.888 1067.92 118.068ZM1081.6 123.09C1080.66 123.09 1079.82 122.886 1079.08 122.478C1078.34 122.07 1077.77 121.5 1077.35 120.768C1076.93 120.024 1076.72 119.19 1076.72 118.266C1076.72 117.342 1076.93 116.514 1077.35 115.782C1077.77 115.05 1078.34 114.48 1079.08 114.072C1079.82 113.664 1080.66 113.46 1081.6 113.46C1082.41 113.46 1083.14 113.622 1083.77 113.946C1084.42 114.258 1084.93 114.72 1085.3 115.332L1084.35 115.98C1084.04 115.512 1083.64 115.164 1083.16 114.936C1082.68 114.696 1082.16 114.576 1081.6 114.576C1080.91 114.576 1080.29 114.732 1079.74 115.044C1079.2 115.344 1078.78 115.776 1078.46 116.34C1078.16 116.904 1078.01 117.546 1078.01 118.266C1078.01 118.998 1078.16 119.646 1078.46 120.21C1078.78 120.762 1079.2 121.194 1079.74 121.506C1080.29 121.806 1080.91 121.956 1081.6 121.956C1082.16 121.956 1082.68 121.842 1083.16 121.614C1083.64 121.386 1084.04 121.038 1084.35 120.57L1085.3 121.218C1084.93 121.83 1084.42 122.298 1083.77 122.622C1083.13 122.934 1082.4 123.09 1081.6 123.09ZM1091.04 113.46C1092.27 113.46 1093.22 113.772 1093.88 114.396C1094.54 115.008 1094.87 115.92 1094.87 117.132V123H1093.65V121.524C1093.36 122.016 1092.93 122.4 1092.37 122.676C1091.82 122.952 1091.16 123.09 1090.39 123.09C1089.33 123.09 1088.49 122.838 1087.87 122.334C1087.24 121.83 1086.93 121.164 1086.93 120.336C1086.93 119.532 1087.22 118.884 1087.8 118.392C1088.38 117.9 1089.31 117.654 1090.59 117.654H1093.59V117.078C1093.59 116.262 1093.36 115.644 1092.91 115.224C1092.45 114.792 1091.79 114.576 1090.91 114.576C1090.31 114.576 1089.73 114.678 1089.18 114.882C1088.63 115.074 1088.16 115.344 1087.76 115.692L1087.18 114.738C1087.66 114.33 1088.24 114.018 1088.91 113.802C1089.58 113.574 1090.29 113.46 1091.04 113.46ZM1090.59 122.082C1091.31 122.082 1091.92 121.92 1092.44 121.596C1092.96 121.26 1093.34 120.78 1093.59 120.156V118.608H1090.62C1089 118.608 1088.19 119.172 1088.19 120.3C1088.19 120.852 1088.4 121.29 1088.82 121.614C1089.24 121.926 1089.83 122.082 1090.59 122.082ZM1098.27 113.532H1099.55V121.056L1105.87 113.532H1107V123H1105.72V115.476L1099.42 123H1098.27V113.532ZM1102.57 112.164C1101.76 112.164 1101.11 111.96 1100.63 111.552C1100.15 111.144 1099.9 110.568 1099.89 109.824H1100.81C1100.82 110.292 1100.99 110.67 1101.31 110.958C1101.64 111.234 1102.06 111.372 1102.57 111.372C1103.09 111.372 1103.51 111.234 1103.83 110.958C1104.17 110.67 1104.34 110.292 1104.36 109.824H1105.27C1105.26 110.568 1105.01 111.144 1104.52 111.552C1104.04 111.96 1103.39 112.164 1102.57 112.164ZM1117.32 114.666H1113.74V123H1112.46V114.666H1108.88V113.532H1117.32V114.666ZM1122.43 113.46C1123.67 113.46 1124.61 113.772 1125.27 114.396C1125.93 115.008 1126.26 115.92 1126.26 117.132V123H1125.04V121.524C1124.75 122.016 1124.33 122.4 1123.76 122.676C1123.21 122.952 1122.55 123.09 1121.78 123.09C1120.73 123.09 1119.89 122.838 1119.26 122.334C1118.64 121.83 1118.33 121.164 1118.33 120.336C1118.33 119.532 1118.61 118.884 1119.19 118.392C1119.78 117.9 1120.71 117.654 1121.98 117.654H1124.99V117.078C1124.99 116.262 1124.76 115.644 1124.3 115.224C1123.85 114.792 1123.18 114.576 1122.3 114.576C1121.7 114.576 1121.13 114.678 1120.58 114.882C1120.02 115.074 1119.55 115.344 1119.15 115.692L1118.58 114.738C1119.06 114.33 1119.63 114.018 1120.31 113.802C1120.98 113.574 1121.69 113.46 1122.43 113.46ZM1121.98 122.082C1122.7 122.082 1123.32 121.92 1123.83 121.596C1124.35 121.26 1124.73 120.78 1124.99 120.156V118.608H1122.02C1120.4 118.608 1119.59 119.172 1119.59 120.3C1119.59 120.852 1119.8 121.29 1120.22 121.614C1120.64 121.926 1121.22 122.082 1121.98 122.082Z" fill="#061150"/>
<circle cx="1012" cy="45" r="6" fill="#0047FF"/>
<circle cx="1012" cy="45" r="3" fill="white"/>
<path d="M388.744 15.5893C388.419 15.2638 388.419 14.7362 388.744 14.4108L393.155 10L388.744 5.58926C388.419 5.26383 388.419 4.73619 388.744 4.41075C389.07 4.08532 389.597 4.08532 389.923 4.41075L394.923 9.41075C395.248 9.73619 395.248 10.2638 394.923 10.5893L389.923 15.5893C389.597 15.9147 389.07 15.9147 388.744 15.5893Z" fill="#C4C7D1"/>
<path d="M804.744 15.5893C804.419 15.2638 804.419 14.7362 804.744 14.4108L809.155 10L804.744 5.58926C804.419 5.26383 804.419 4.73619 804.744 4.41075C805.07 4.08532 805.597 4.08532 805.923 4.41075L810.923 9.41075C811.248 9.73619 811.248 10.2638 810.923 10.5893L805.923 15.5893C805.597 15.9147 805.07 15.9147 804.744 15.5893Z" fill="#C4C7D1"/>
<line x1="189" y1="26" x2="189" y2="14" stroke="#C4C7D1" stroke-width="2" stroke-linecap="round" stroke-dasharray="1 5"/>
<line x1="1012" y1="10" x2="189" y2="10" stroke="#C4C7D1" stroke-width="2" stroke-linecap="round" stroke-dasharray="1 5"/>
<line x1="600" y1="26" x2="600" y2="17" stroke="#C4C7D1" stroke-width="2" stroke-linecap="round" stroke-dasharray="1 5"/>
<line x1="1012" y1="26" x2="1012" y2="14" stroke="#C4C7D1" stroke-width="2" stroke-linecap="round" stroke-dasharray="1 5"/>
</svg>
