<svg width="1200" height="178" viewBox="0 0 1200 178" fill="none" xmlns="http://www.w3.org/2000/svg">
<path fill-rule="evenodd" clip-rule="evenodd" d="M188 64C197.941 64 206 55.9411 206 46H368C372.418 46 376 49.5817 376 54V170C376 174.418 372.418 178 368 178H8C3.58172 178 0 174.418 0 170V54C0 49.5817 3.58172 46 8 46H170C170 55.9411 178.059 64 188 64Z" fill="#F0F6FC"/>
<path d="M177.092 89.6V98H166.304V89.6H167.84V96.68H170.936V89.6H172.472V96.68H175.556V89.6H177.092ZM186.22 96.056H182.02L181.192 98H179.584L183.364 89.6H184.9L188.692 98H187.06L186.22 96.056ZM185.704 94.832L184.12 91.16L182.548 94.832H185.704ZM196.88 90.92H192.716L192.728 98H191.192V89.6H196.892L196.88 90.92ZM210.756 96.092H209.268V98H207.756V96.092H203.148V95.012L207.288 89.6H208.956L205.056 94.772H207.804V93.08H209.268V94.772H210.756V96.092Z" fill="#2C1EF5"/>
<path d="M46.6594 117.502C47.5354 117.682 48.2014 118.036 48.6574 118.564C49.1134 119.08 49.3414 119.758 49.3414 120.598C49.3414 121.69 48.9514 122.53 48.1714 123.118C47.4034 123.706 46.2694 124 44.7694 124H39.1894V111.4H44.4274C45.7714 111.4 46.8214 111.676 47.5774 112.228C48.3334 112.78 48.7114 113.578 48.7114 114.622C48.7114 115.33 48.5314 115.93 48.1714 116.422C47.8114 116.902 47.3074 117.262 46.6594 117.502ZM40.5034 117.106H44.3554C45.3274 117.106 46.0714 116.908 46.5874 116.512C47.1154 116.116 47.3794 115.54 47.3794 114.784C47.3794 114.028 47.1154 113.452 46.5874 113.056C46.0714 112.66 45.3274 112.462 44.3554 112.462H40.5034V117.106ZM44.7694 122.938C46.9414 122.938 48.0274 122.128 48.0274 120.508C48.0274 118.924 46.9414 118.132 44.7694 118.132H40.5034V122.938H44.7694ZM52.3659 114.532H53.6439V118.726H59.6019V114.532H60.8799V124H59.6019V119.824H53.6439V124H52.3659V114.532ZM72.5583 114.532L67.8243 125.134C67.4403 126.022 66.9963 126.652 66.4923 127.024C65.9883 127.396 65.3823 127.582 64.6743 127.582C64.2183 127.582 63.7923 127.51 63.3963 127.366C63.0003 127.222 62.6583 127.006 62.3703 126.718L62.9643 125.764C63.4443 126.244 64.0203 126.484 64.6923 126.484C65.1243 126.484 65.4903 126.364 65.7903 126.124C66.1023 125.884 66.3903 125.476 66.6543 124.9L67.0683 123.982L62.8383 114.532H64.1703L67.7343 122.578L71.2983 114.532H72.5583ZM81.2446 115.666H77.6626V124H76.3846V115.666H72.8026V114.532H81.2446V115.666ZM87.9704 114.46C88.8584 114.46 89.6624 114.664 90.3824 115.072C91.1024 115.468 91.6664 116.032 92.0744 116.764C92.4824 117.496 92.6864 118.33 92.6864 119.266C92.6864 120.214 92.4824 121.054 92.0744 121.786C91.6664 122.518 91.1024 123.088 90.3824 123.496C89.6744 123.892 88.8704 124.09 87.9704 124.09C87.2024 124.09 86.5064 123.934 85.8824 123.622C85.2704 123.298 84.7664 122.83 84.3704 122.218V127.492H83.0924V114.532H84.3164V116.404C84.7004 115.78 85.2044 115.3 85.8284 114.964C86.4644 114.628 87.1784 114.46 87.9704 114.46ZM87.8804 122.956C88.5404 122.956 89.1404 122.806 89.6804 122.506C90.2204 122.194 90.6404 121.756 90.9404 121.192C91.2524 120.628 91.4084 119.986 91.4084 119.266C91.4084 118.546 91.2524 117.91 90.9404 117.358C90.6404 116.794 90.2204 116.356 89.6804 116.044C89.1404 115.732 88.5404 115.576 87.8804 115.576C87.2084 115.576 86.6024 115.732 86.0624 116.044C85.5344 116.356 85.1144 116.794 84.8024 117.358C84.5024 117.91 84.3524 118.546 84.3524 119.266C84.3524 119.986 84.5024 120.628 84.8024 121.192C85.1144 121.756 85.5344 122.194 86.0624 122.506C86.6024 122.806 87.2084 122.956 87.8804 122.956ZM103.712 119.662H95.7923C95.8643 120.646 96.2423 121.444 96.9263 122.056C97.6103 122.656 98.4743 122.956 99.5183 122.956C100.106 122.956 100.646 122.854 101.138 122.65C101.63 122.434 102.056 122.122 102.416 121.714L103.136 122.542C102.716 123.046 102.188 123.43 101.552 123.694C100.928 123.958 100.238 124.09 99.4823 124.09C98.5103 124.09 97.6463 123.886 96.8903 123.478C96.1463 123.058 95.5643 122.482 95.1443 121.75C94.7243 121.018 94.5143 120.19 94.5143 119.266C94.5143 118.342 94.7123 117.514 95.1083 116.782C95.5163 116.05 96.0683 115.48 96.7643 115.072C97.4723 114.664 98.2643 114.46 99.1403 114.46C100.016 114.46 100.802 114.664 101.498 115.072C102.194 115.48 102.74 116.05 103.136 116.782C103.532 117.502 103.73 118.33 103.73 119.266L103.712 119.662ZM99.1403 115.558C98.2283 115.558 97.4603 115.852 96.8363 116.44C96.2243 117.016 95.8763 117.772 95.7923 118.708H102.506C102.422 117.772 102.068 117.016 101.444 116.44C100.832 115.852 100.064 115.558 99.1403 115.558ZM106.559 114.532H107.837V118.726H113.795V114.532H115.073V124H113.795V119.824H107.837V124H106.559V114.532ZM118.706 114.532H119.984V118.726H125.942V114.532H127.22V124H125.942V119.824H119.984V124H118.706V114.532ZM138.124 114.532V124H136.954V120.868H133.984H133.624L131.428 124H130.042L132.4 120.688C131.668 120.484 131.104 120.136 130.708 119.644C130.312 119.152 130.114 118.528 130.114 117.772C130.114 116.716 130.474 115.912 131.194 115.36C131.914 114.808 132.898 114.532 134.146 114.532H138.124ZM131.41 117.808C131.41 119.212 132.304 119.914 134.092 119.914H136.954V115.666H134.182C132.334 115.666 131.41 116.38 131.41 117.808ZM149.04 114.532V124H147.87V120.868H144.9H144.54L142.344 124H140.958L143.316 120.688C142.584 120.484 142.02 120.136 141.624 119.644C141.228 119.152 141.03 118.528 141.03 117.772C141.03 116.716 141.39 115.912 142.11 115.36C142.83 114.808 143.814 114.532 145.062 114.532H149.04ZM142.326 117.808C142.326 119.212 143.22 119.914 145.008 119.914H147.87V115.666H145.098C143.25 115.666 142.326 116.38 142.326 117.808ZM161.301 124.09C160.389 124.09 159.567 123.886 158.835 123.478C158.103 123.058 157.527 122.482 157.107 121.75C156.687 121.018 156.477 120.19 156.477 119.266C156.477 118.342 156.687 117.514 157.107 116.782C157.527 116.05 158.103 115.48 158.835 115.072C159.567 114.664 160.389 114.46 161.301 114.46C162.213 114.46 163.035 114.664 163.767 115.072C164.499 115.48 165.069 116.05 165.477 116.782C165.897 117.514 166.107 118.342 166.107 119.266C166.107 120.19 165.897 121.018 165.477 121.75C165.069 122.482 164.499 123.058 163.767 123.478C163.035 123.886 162.213 124.09 161.301 124.09ZM161.301 122.956C161.973 122.956 162.573 122.806 163.101 122.506C163.641 122.194 164.061 121.756 164.361 121.192C164.661 120.628 164.811 119.986 164.811 119.266C164.811 118.546 164.661 117.904 164.361 117.34C164.061 116.776 163.641 116.344 163.101 116.044C162.573 115.732 161.973 115.576 161.301 115.576C160.629 115.576 160.023 115.732 159.483 116.044C158.955 116.344 158.535 116.776 158.223 117.34C157.923 117.904 157.773 118.546 157.773 119.266C157.773 119.986 157.923 120.628 158.223 121.192C158.535 121.756 158.955 122.194 159.483 122.506C160.023 122.806 160.629 122.956 161.301 122.956ZM177.335 114.532V124H176.057V115.666H170.117V124H168.839V114.532H177.335ZM187.627 115.666H184.045V124H182.767V115.666H179.185V114.532H187.627V115.666ZM189.475 114.532H190.753V122.056L197.071 114.532H198.205V124H196.927V116.476L190.627 124H189.475V114.532ZM212.452 114.532V124H211.282V116.512L207.448 122.848H206.872L203.038 116.494V124H201.868V114.532H203.164L207.178 121.354L211.264 114.532H212.452ZM216.089 114.532H217.367V122.056L223.685 114.532H224.819V124H223.541V116.476L217.241 124H216.089V114.532ZM232.896 119.068C233.568 119.224 234.084 119.494 234.444 119.878C234.816 120.262 235.002 120.73 235.002 121.282C235.002 121.834 234.81 122.326 234.426 122.758C234.054 123.19 233.544 123.526 232.896 123.766C232.248 123.994 231.534 124.108 230.754 124.108C230.07 124.108 229.398 124.012 228.738 123.82C228.078 123.616 227.502 123.322 227.01 122.938L227.442 121.984C227.874 122.308 228.378 122.56 228.954 122.74C229.53 122.92 230.112 123.01 230.7 123.01C231.576 123.01 232.29 122.848 232.842 122.524C233.406 122.188 233.688 121.738 233.688 121.174C233.688 120.67 233.46 120.28 233.004 120.004C232.548 119.716 231.924 119.572 231.132 119.572H229.512V118.636H231.06C231.768 118.636 232.338 118.504 232.77 118.24C233.202 117.964 233.418 117.598 233.418 117.142C233.418 116.638 233.172 116.242 232.68 115.954C232.2 115.666 231.57 115.522 230.79 115.522C229.77 115.522 228.762 115.78 227.766 116.296L227.406 115.306C228.534 114.718 229.704 114.424 230.916 114.424C231.636 114.424 232.284 114.532 232.86 114.748C233.448 114.952 233.904 115.246 234.228 115.63C234.564 116.014 234.732 116.458 234.732 116.962C234.732 117.442 234.564 117.868 234.228 118.24C233.904 118.612 233.46 118.888 232.896 119.068ZM241.161 114.46C242.397 114.46 243.345 114.772 244.005 115.396C244.665 116.008 244.995 116.92 244.995 118.132V124H243.771V122.524C243.483 123.016 243.057 123.4 242.493 123.676C241.941 123.952 241.281 124.09 240.513 124.09C239.457 124.09 238.617 123.838 237.993 123.334C237.369 122.83 237.057 122.164 237.057 121.336C237.057 120.532 237.345 119.884 237.921 119.392C238.509 118.9 239.439 118.654 240.711 118.654H243.717V118.078C243.717 117.262 243.489 116.644 243.033 116.224C242.577 115.792 241.911 115.576 241.035 115.576C240.435 115.576 239.859 115.678 239.307 115.882C238.755 116.074 238.281 116.344 237.885 116.692L237.309 115.738C237.789 115.33 238.365 115.018 239.037 114.802C239.709 114.574 240.417 114.46 241.161 114.46ZM240.711 123.082C241.431 123.082 242.049 122.92 242.565 122.596C243.081 122.26 243.465 121.78 243.717 121.156V119.608H240.747C239.127 119.608 238.317 120.172 238.317 121.3C238.317 121.852 238.527 122.29 238.947 122.614C239.367 122.926 239.955 123.082 240.711 123.082ZM258.261 122.884V126.376H257.055V124H248.397V114.532H249.675V122.884H255.453V114.532H256.731V122.884H258.261ZM260.702 114.532H261.98V122.056L268.298 114.532H269.432V124H268.154V116.476L261.854 124H260.702V114.532ZM280.366 114.532V124H279.196V120.868H276.226H275.866L273.67 124H272.284L274.642 120.688C273.91 120.484 273.346 120.136 272.95 119.644C272.554 119.152 272.356 118.528 272.356 117.772C272.356 116.716 272.716 115.912 273.436 115.36C274.156 114.808 275.14 114.532 276.388 114.532H280.366ZM273.652 117.808C273.652 119.212 274.546 119.914 276.334 119.914H279.196V115.666H276.424C274.576 115.666 273.652 116.38 273.652 117.808ZM292.681 124.09C291.745 124.09 290.905 123.886 290.161 123.478C289.429 123.07 288.853 122.5 288.433 121.768C288.013 121.024 287.803 120.19 287.803 119.266C287.803 118.342 288.013 117.514 288.433 116.782C288.853 116.05 289.429 115.48 290.161 115.072C290.905 114.664 291.745 114.46 292.681 114.46C293.497 114.46 294.223 114.622 294.859 114.946C295.507 115.258 296.017 115.72 296.389 116.332L295.435 116.98C295.123 116.512 294.727 116.164 294.247 115.936C293.767 115.696 293.245 115.576 292.681 115.576C291.997 115.576 291.379 115.732 290.827 116.044C290.287 116.344 289.861 116.776 289.549 117.34C289.249 117.904 289.099 118.546 289.099 119.266C289.099 119.998 289.249 120.646 289.549 121.21C289.861 121.762 290.287 122.194 290.827 122.506C291.379 122.806 291.997 122.956 292.681 122.956C293.245 122.956 293.767 122.842 294.247 122.614C294.727 122.386 295.123 122.038 295.435 121.57L296.389 122.218C296.017 122.83 295.507 123.298 294.859 123.622C294.211 123.934 293.485 124.09 292.681 124.09ZM302.122 114.46C303.358 114.46 304.306 114.772 304.966 115.396C305.626 116.008 305.956 116.92 305.956 118.132V124H304.732V122.524C304.444 123.016 304.018 123.4 303.454 123.676C302.902 123.952 302.242 124.09 301.474 124.09C300.418 124.09 299.578 123.838 298.954 123.334C298.33 122.83 298.018 122.164 298.018 121.336C298.018 120.532 298.306 119.884 298.882 119.392C299.47 118.9 300.4 118.654 301.672 118.654H304.678V118.078C304.678 117.262 304.45 116.644 303.994 116.224C303.538 115.792 302.872 115.576 301.996 115.576C301.396 115.576 300.82 115.678 300.268 115.882C299.716 116.074 299.242 116.344 298.846 116.692L298.27 115.738C298.75 115.33 299.326 115.018 299.998 114.802C300.67 114.574 301.378 114.46 302.122 114.46ZM301.672 123.082C302.392 123.082 303.01 122.92 303.526 122.596C304.042 122.26 304.426 121.78 304.678 121.156V119.608H301.708C300.088 119.608 299.278 120.172 299.278 121.3C299.278 121.852 299.488 122.29 299.908 122.614C300.328 122.926 300.916 123.082 301.672 123.082ZM309.358 114.532H310.636V122.056L316.954 114.532H318.088V124H316.81V116.476L310.51 124H309.358V114.532ZM313.66 113.164C312.844 113.164 312.196 112.96 311.716 112.552C311.236 112.144 310.99 111.568 310.978 110.824H311.896C311.908 111.292 312.076 111.67 312.4 111.958C312.724 112.234 313.144 112.372 313.66 112.372C314.176 112.372 314.596 112.234 314.92 111.958C315.256 111.67 315.43 111.292 315.442 110.824H316.36C316.348 111.568 316.096 112.144 315.604 112.552C315.124 112.96 314.476 113.164 313.66 113.164ZM328.411 115.666H324.829V124H323.551V115.666H319.969V114.532H328.411V115.666ZM333.516 114.46C334.752 114.46 335.7 114.772 336.36 115.396C337.02 116.008 337.35 116.92 337.35 118.132V124H336.126V122.524C335.838 123.016 335.412 123.4 334.848 123.676C334.296 123.952 333.636 124.09 332.868 124.09C331.812 124.09 330.972 123.838 330.348 123.334C329.724 122.83 329.412 122.164 329.412 121.336C329.412 120.532 329.7 119.884 330.276 119.392C330.864 118.9 331.794 118.654 333.066 118.654H336.072V118.078C336.072 117.262 335.844 116.644 335.388 116.224C334.932 115.792 334.266 115.576 333.39 115.576C332.79 115.576 332.214 115.678 331.662 115.882C331.11 116.074 330.636 116.344 330.24 116.692L329.664 115.738C330.144 115.33 330.72 115.018 331.392 114.802C332.064 114.574 332.772 114.46 333.516 114.46ZM333.066 123.082C333.786 123.082 334.404 122.92 334.92 122.596C335.436 122.26 335.82 121.78 336.072 121.156V119.608H333.102C331.482 119.608 330.672 120.172 330.672 121.3C330.672 121.852 330.882 122.29 331.302 122.614C331.722 122.926 332.31 123.082 333.066 123.082Z" fill="#061150"/>
<circle cx="188" cy="46" r="6" fill="#0047FF"/>
<circle cx="188" cy="46" r="3" fill="white"/>
<path fill-rule="evenodd" clip-rule="evenodd" d="M600 64C609.941 64 618 55.9411 618 46H780C784.418 46 788 49.5817 788 54V170C788 174.418 784.418 178 780 178H420C415.582 178 412 174.418 412 170V54C412 49.5817 415.582 46 420 46H582C582 55.9411 590.059 64 600 64Z" fill="#F0F6FC"/>
<path d="M590.16 89.6V98H579.372V89.6H580.908V96.68H584.004V89.6H585.54V96.68H588.624V89.6H590.16ZM599.288 96.056H595.088L594.26 98H592.652L596.432 89.6H597.968L601.76 98H600.128L599.288 96.056ZM598.772 94.832L597.188 91.16L595.616 94.832H598.772ZM609.948 90.92H605.784L605.796 98H604.26V89.6H609.96L609.948 90.92ZM618.964 92.852C620.148 92.852 621.024 93.084 621.592 93.548C622.16 94.004 622.444 94.628 622.444 95.42C622.444 95.924 622.32 96.38 622.072 96.788C621.824 97.196 621.452 97.52 620.956 97.76C620.46 98 619.848 98.12 619.12 98.12C618.52 98.12 617.94 98.036 617.38 97.868C616.82 97.692 616.348 97.452 615.964 97.148L616.624 95.936C616.936 96.192 617.308 96.396 617.74 96.548C618.18 96.692 618.632 96.764 619.096 96.764C619.648 96.764 620.08 96.652 620.392 96.428C620.712 96.196 620.872 95.88 620.872 95.48C620.872 95.048 620.7 94.724 620.356 94.508C620.02 94.284 619.44 94.172 618.616 94.172H616.588L617.02 89.6H621.952V90.908H618.34L618.16 92.852H618.964Z" fill="#2C1EF5"/>
<path d="M463.282 117.502C464.158 117.682 464.824 118.036 465.28 118.564C465.736 119.08 465.964 119.758 465.964 120.598C465.964 121.69 465.574 122.53 464.794 123.118C464.026 123.706 462.892 124 461.392 124H455.812V111.4H461.05C462.394 111.4 463.444 111.676 464.2 112.228C464.956 112.78 465.334 113.578 465.334 114.622C465.334 115.33 465.154 115.93 464.794 116.422C464.434 116.902 463.93 117.262 463.282 117.502ZM457.126 117.106H460.978C461.95 117.106 462.694 116.908 463.21 116.512C463.738 116.116 464.002 115.54 464.002 114.784C464.002 114.028 463.738 113.452 463.21 113.056C462.694 112.66 461.95 112.462 460.978 112.462H457.126V117.106ZM461.392 122.938C463.564 122.938 464.65 122.128 464.65 120.508C464.65 118.924 463.564 118.132 461.392 118.132H457.126V122.938H461.392ZM468.989 114.532H470.267V118.726H476.225V114.532H477.503V124H476.225V119.824H470.267V124H468.989V114.532ZM489.415 119.662H481.495C481.567 120.646 481.945 121.444 482.629 122.056C483.313 122.656 484.177 122.956 485.221 122.956C485.809 122.956 486.349 122.854 486.841 122.65C487.333 122.434 487.759 122.122 488.119 121.714L488.839 122.542C488.419 123.046 487.891 123.43 487.255 123.694C486.631 123.958 485.941 124.09 485.185 124.09C484.213 124.09 483.349 123.886 482.593 123.478C481.849 123.058 481.267 122.482 480.847 121.75C480.427 121.018 480.217 120.19 480.217 119.266C480.217 118.342 480.415 117.514 480.811 116.782C481.219 116.05 481.771 115.48 482.467 115.072C483.175 114.664 483.967 114.46 484.843 114.46C485.719 114.46 486.505 114.664 487.201 115.072C487.897 115.48 488.443 116.05 488.839 116.782C489.235 117.502 489.433 118.33 489.433 119.266L489.415 119.662ZM484.843 115.558C483.931 115.558 483.163 115.852 482.539 116.44C481.927 117.016 481.579 117.772 481.495 118.708H488.209C488.125 117.772 487.771 117.016 487.147 116.44C486.535 115.852 485.767 115.558 484.843 115.558ZM505.33 114.532V124H492.262V114.532H493.54V122.884H498.184V114.532H499.462V122.884H504.052V114.532H505.33ZM508.979 114.532H510.257V118.726H516.215V114.532H517.493V124H516.215V119.824H510.257V124H508.979V114.532ZM528.398 114.532V124H527.228V120.868H524.258H523.898L521.702 124H520.316L522.674 120.688C521.942 120.484 521.378 120.136 520.982 119.644C520.586 119.152 520.388 118.528 520.388 117.772C520.388 116.716 520.748 115.912 521.468 115.36C522.188 114.808 523.172 114.532 524.42 114.532H528.398ZM521.684 117.808C521.684 119.212 522.578 119.914 524.366 119.914H527.228V115.666H524.456C522.608 115.666 521.684 116.38 521.684 117.808ZM539.314 114.532V124H538.144V120.868H535.174H534.814L532.618 124H531.232L533.59 120.688C532.858 120.484 532.294 120.136 531.898 119.644C531.502 119.152 531.304 118.528 531.304 117.772C531.304 116.716 531.664 115.912 532.384 115.36C533.104 114.808 534.088 114.532 535.336 114.532H539.314ZM532.6 117.808C532.6 119.212 533.494 119.914 535.282 119.914H538.144V115.666H535.372C533.524 115.666 532.6 116.38 532.6 117.808ZM551.575 124.09C550.663 124.09 549.841 123.886 549.109 123.478C548.377 123.058 547.801 122.482 547.381 121.75C546.961 121.018 546.751 120.19 546.751 119.266C546.751 118.342 546.961 117.514 547.381 116.782C547.801 116.05 548.377 115.48 549.109 115.072C549.841 114.664 550.663 114.46 551.575 114.46C552.487 114.46 553.309 114.664 554.041 115.072C554.773 115.48 555.343 116.05 555.751 116.782C556.171 117.514 556.381 118.342 556.381 119.266C556.381 120.19 556.171 121.018 555.751 121.75C555.343 122.482 554.773 123.058 554.041 123.478C553.309 123.886 552.487 124.09 551.575 124.09ZM551.575 122.956C552.247 122.956 552.847 122.806 553.375 122.506C553.915 122.194 554.335 121.756 554.635 121.192C554.935 120.628 555.085 119.986 555.085 119.266C555.085 118.546 554.935 117.904 554.635 117.34C554.335 116.776 553.915 116.344 553.375 116.044C552.847 115.732 552.247 115.576 551.575 115.576C550.903 115.576 550.297 115.732 549.757 116.044C549.229 116.344 548.809 116.776 548.497 117.34C548.197 117.904 548.047 118.546 548.047 119.266C548.047 119.986 548.197 120.628 548.497 121.192C548.809 121.756 549.229 122.194 549.757 122.506C550.297 122.806 550.903 122.956 551.575 122.956ZM567.608 114.532V124H566.33V115.666H560.39V124H559.112V114.532H567.608ZM577.901 115.666H574.319V124H573.041V115.666H569.459V114.532H577.901V115.666ZM579.749 114.532H581.027V122.056L587.345 114.532H588.479V124H587.201V116.476L580.901 124H579.749V114.532ZM602.725 114.532V124H601.555V116.512L597.721 122.848H597.145L593.311 116.494V124H592.141V114.532H593.437L597.451 121.354L601.537 114.532H602.725ZM606.362 114.532H607.64V122.056L613.958 114.532H615.092V124H613.814V116.476L607.514 124H606.362V114.532ZM623.169 119.068C623.841 119.224 624.357 119.494 624.717 119.878C625.089 120.262 625.275 120.73 625.275 121.282C625.275 121.834 625.083 122.326 624.699 122.758C624.327 123.19 623.817 123.526 623.169 123.766C622.521 123.994 621.807 124.108 621.027 124.108C620.343 124.108 619.671 124.012 619.011 123.82C618.351 123.616 617.775 123.322 617.283 122.938L617.715 121.984C618.147 122.308 618.651 122.56 619.227 122.74C619.803 122.92 620.385 123.01 620.973 123.01C621.849 123.01 622.563 122.848 623.115 122.524C623.679 122.188 623.961 121.738 623.961 121.174C623.961 120.67 623.733 120.28 623.277 120.004C622.821 119.716 622.197 119.572 621.405 119.572H619.785V118.636H621.333C622.041 118.636 622.611 118.504 623.043 118.24C623.475 117.964 623.691 117.598 623.691 117.142C623.691 116.638 623.445 116.242 622.953 115.954C622.473 115.666 621.843 115.522 621.063 115.522C620.043 115.522 619.035 115.78 618.039 116.296L617.679 115.306C618.807 114.718 619.977 114.424 621.189 114.424C621.909 114.424 622.557 114.532 623.133 114.748C623.721 114.952 624.177 115.246 624.501 115.63C624.837 116.014 625.005 116.458 625.005 116.962C625.005 117.442 624.837 117.868 624.501 118.24C624.177 118.612 623.733 118.888 623.169 119.068ZM631.434 114.46C632.67 114.46 633.618 114.772 634.278 115.396C634.938 116.008 635.268 116.92 635.268 118.132V124H634.044V122.524C633.756 123.016 633.33 123.4 632.766 123.676C632.214 123.952 631.554 124.09 630.786 124.09C629.73 124.09 628.89 123.838 628.266 123.334C627.642 122.83 627.33 122.164 627.33 121.336C627.33 120.532 627.618 119.884 628.194 119.392C628.782 118.9 629.712 118.654 630.984 118.654H633.99V118.078C633.99 117.262 633.762 116.644 633.306 116.224C632.85 115.792 632.184 115.576 631.308 115.576C630.708 115.576 630.132 115.678 629.58 115.882C629.028 116.074 628.554 116.344 628.158 116.692L627.582 115.738C628.062 115.33 628.638 115.018 629.31 114.802C629.982 114.574 630.69 114.46 631.434 114.46ZM630.984 123.082C631.704 123.082 632.322 122.92 632.838 122.596C633.354 122.26 633.738 121.78 633.99 121.156V119.608H631.02C629.4 119.608 628.59 120.172 628.59 121.3C628.59 121.852 628.8 122.29 629.22 122.614C629.64 122.926 630.228 123.082 630.984 123.082ZM648.535 122.884V126.376H647.329V124H638.671V114.532H639.949V122.884H645.727V114.532H647.005V122.884H648.535ZM650.975 114.532H652.253V122.056L658.571 114.532H659.705V124H658.427V116.476L652.127 124H650.975V114.532ZM670.64 114.532V124H669.47V120.868H666.5H666.14L663.944 124H662.558L664.916 120.688C664.184 120.484 663.62 120.136 663.224 119.644C662.828 119.152 662.63 118.528 662.63 117.772C662.63 116.716 662.99 115.912 663.71 115.36C664.43 114.808 665.414 114.532 666.662 114.532H670.64ZM663.926 117.808C663.926 119.212 664.82 119.914 666.608 119.914H669.47V115.666H666.698C664.85 115.666 663.926 116.38 663.926 117.808ZM682.955 124.09C682.019 124.09 681.179 123.886 680.435 123.478C679.703 123.07 679.127 122.5 678.707 121.768C678.287 121.024 678.077 120.19 678.077 119.266C678.077 118.342 678.287 117.514 678.707 116.782C679.127 116.05 679.703 115.48 680.435 115.072C681.179 114.664 682.019 114.46 682.955 114.46C683.771 114.46 684.497 114.622 685.133 114.946C685.781 115.258 686.291 115.72 686.663 116.332L685.709 116.98C685.397 116.512 685.001 116.164 684.521 115.936C684.041 115.696 683.519 115.576 682.955 115.576C682.271 115.576 681.653 115.732 681.101 116.044C680.561 116.344 680.135 116.776 679.823 117.34C679.523 117.904 679.373 118.546 679.373 119.266C679.373 119.998 679.523 120.646 679.823 121.21C680.135 121.762 680.561 122.194 681.101 122.506C681.653 122.806 682.271 122.956 682.955 122.956C683.519 122.956 684.041 122.842 684.521 122.614C685.001 122.386 685.397 122.038 685.709 121.57L686.663 122.218C686.291 122.83 685.781 123.298 685.133 123.622C684.485 123.934 683.759 124.09 682.955 124.09ZM692.395 114.46C693.631 114.46 694.579 114.772 695.239 115.396C695.899 116.008 696.229 116.92 696.229 118.132V124H695.005V122.524C694.717 123.016 694.291 123.4 693.727 123.676C693.175 123.952 692.515 124.09 691.747 124.09C690.691 124.09 689.851 123.838 689.227 123.334C688.603 122.83 688.291 122.164 688.291 121.336C688.291 120.532 688.579 119.884 689.155 119.392C689.743 118.9 690.673 118.654 691.945 118.654H694.951V118.078C694.951 117.262 694.723 116.644 694.267 116.224C693.811 115.792 693.145 115.576 692.269 115.576C691.669 115.576 691.093 115.678 690.541 115.882C689.989 116.074 689.515 116.344 689.119 116.692L688.543 115.738C689.023 115.33 689.599 115.018 690.271 114.802C690.943 114.574 691.651 114.46 692.395 114.46ZM691.945 123.082C692.665 123.082 693.283 122.92 693.799 122.596C694.315 122.26 694.699 121.78 694.951 121.156V119.608H691.981C690.361 119.608 689.551 120.172 689.551 121.3C689.551 121.852 689.761 122.29 690.181 122.614C690.601 122.926 691.189 123.082 691.945 123.082ZM699.631 114.532H700.909V122.056L707.227 114.532H708.361V124H707.083V116.476L700.783 124H699.631V114.532ZM703.933 113.164C703.117 113.164 702.469 112.96 701.989 112.552C701.509 112.144 701.263 111.568 701.251 110.824H702.169C702.181 111.292 702.349 111.67 702.673 111.958C702.997 112.234 703.417 112.372 703.933 112.372C704.449 112.372 704.869 112.234 705.193 111.958C705.529 111.67 705.703 111.292 705.715 110.824H706.633C706.621 111.568 706.369 112.144 705.877 112.552C705.397 112.96 704.749 113.164 703.933 113.164ZM718.684 115.666H715.102V124H713.824V115.666H710.242V114.532H718.684V115.666ZM723.79 114.46C725.026 114.46 725.974 114.772 726.634 115.396C727.294 116.008 727.624 116.92 727.624 118.132V124H726.4V122.524C726.112 123.016 725.686 123.4 725.122 123.676C724.57 123.952 723.91 124.09 723.142 124.09C722.086 124.09 721.246 123.838 720.622 123.334C719.998 122.83 719.686 122.164 719.686 121.336C719.686 120.532 719.974 119.884 720.55 119.392C721.138 118.9 722.068 118.654 723.34 118.654H726.346V118.078C726.346 117.262 726.118 116.644 725.662 116.224C725.206 115.792 724.54 115.576 723.664 115.576C723.064 115.576 722.488 115.678 721.936 115.882C721.384 116.074 720.91 116.344 720.514 116.692L719.938 115.738C720.418 115.33 720.994 115.018 721.666 114.802C722.338 114.574 723.046 114.46 723.79 114.46ZM723.34 123.082C724.06 123.082 724.678 122.92 725.194 122.596C725.71 122.26 726.094 121.78 726.346 121.156V119.608H723.376C721.756 119.608 720.946 120.172 720.946 121.3C720.946 121.852 721.156 122.29 721.576 122.614C721.996 122.926 722.584 123.082 723.34 123.082ZM735.737 114.532H737.015V122.056L743.333 114.532H744.467V124H743.189V116.476L736.889 124H735.737V114.532ZM544.185 138.532V148H542.907V139.666H536.967V148H535.689V138.532H544.185ZM552.696 138.46C553.584 138.46 554.388 138.664 555.108 139.072C555.828 139.468 556.392 140.032 556.8 140.764C557.208 141.496 557.412 142.33 557.412 143.266C557.412 144.214 557.208 145.054 556.8 145.786C556.392 146.518 555.828 147.088 555.108 147.496C554.4 147.892 553.596 148.09 552.696 148.09C551.928 148.09 551.232 147.934 550.608 147.622C549.996 147.298 549.492 146.83 549.096 146.218V151.492H547.818V138.532H549.042V140.404C549.426 139.78 549.93 139.3 550.554 138.964C551.19 138.628 551.904 138.46 552.696 138.46ZM552.606 146.956C553.266 146.956 553.866 146.806 554.406 146.506C554.946 146.194 555.366 145.756 555.666 145.192C555.978 144.628 556.134 143.986 556.134 143.266C556.134 142.546 555.978 141.91 555.666 141.358C555.366 140.794 554.946 140.356 554.406 140.044C553.866 139.732 553.266 139.576 552.606 139.576C551.934 139.576 551.328 139.732 550.788 140.044C550.26 140.356 549.84 140.794 549.528 141.358C549.228 141.91 549.078 142.546 549.078 143.266C549.078 143.986 549.228 144.628 549.528 145.192C549.84 145.756 550.26 146.194 550.788 146.506C551.328 146.806 551.934 146.956 552.606 146.956ZM564.064 148.09C563.152 148.09 562.33 147.886 561.598 147.478C560.866 147.058 560.29 146.482 559.87 145.75C559.45 145.018 559.24 144.19 559.24 143.266C559.24 142.342 559.45 141.514 559.87 140.782C560.29 140.05 560.866 139.48 561.598 139.072C562.33 138.664 563.152 138.46 564.064 138.46C564.976 138.46 565.798 138.664 566.53 139.072C567.262 139.48 567.832 140.05 568.24 140.782C568.66 141.514 568.87 142.342 568.87 143.266C568.87 144.19 568.66 145.018 568.24 145.75C567.832 146.482 567.262 147.058 566.53 147.478C565.798 147.886 564.976 148.09 564.064 148.09ZM564.064 146.956C564.736 146.956 565.336 146.806 565.864 146.506C566.404 146.194 566.824 145.756 567.124 145.192C567.424 144.628 567.574 143.986 567.574 143.266C567.574 142.546 567.424 141.904 567.124 141.34C566.824 140.776 566.404 140.344 565.864 140.044C565.336 139.732 564.736 139.576 564.064 139.576C563.392 139.576 562.786 139.732 562.246 140.044C561.718 140.344 561.298 140.776 560.986 141.34C560.686 141.904 560.536 142.546 560.536 143.266C560.536 143.986 560.686 144.628 560.986 145.192C561.298 145.756 561.718 146.194 562.246 146.506C562.786 146.806 563.392 146.956 564.064 146.956ZM580.782 146.884V150.286H579.576V148H571.098V150.286H569.892V146.884H570.432C571.068 146.848 571.5 146.38 571.728 145.48C571.956 144.58 572.112 143.32 572.196 141.7L572.322 138.532H579.306V146.884H580.782ZM573.366 141.772C573.306 143.116 573.192 144.226 573.024 145.102C572.856 145.966 572.556 146.56 572.124 146.884H578.028V139.666H573.474L573.366 141.772ZM589.303 143.104C590.587 143.404 591.229 144.178 591.229 145.426C591.229 146.254 590.923 146.89 590.311 147.334C589.699 147.778 588.787 148 587.575 148H583.273V138.532H587.449C588.529 138.532 589.375 138.742 589.987 139.162C590.599 139.582 590.905 140.182 590.905 140.962C590.905 141.478 590.761 141.922 590.473 142.294C590.197 142.654 589.807 142.924 589.303 143.104ZM584.515 142.744H587.359C588.091 142.744 588.649 142.606 589.033 142.33C589.429 142.054 589.627 141.652 589.627 141.124C589.627 140.596 589.429 140.2 589.033 139.936C588.649 139.672 588.091 139.54 587.359 139.54H584.515V142.744ZM587.521 146.992C588.337 146.992 588.949 146.86 589.357 146.596C589.765 146.332 589.969 145.918 589.969 145.354C589.969 144.79 589.783 144.376 589.411 144.112C589.039 143.836 588.451 143.698 587.647 143.698H584.515V146.992H587.521ZM594.224 138.532H595.502V146.056L601.82 138.532H602.954V148H601.676V140.476L595.376 148H594.224V138.532ZM614.915 143.788H612.863V148H611.585V143.788H609.533L606.635 148H605.105L608.507 143.122L605.375 138.532H606.761L609.533 142.69H611.585V138.532H612.863V142.69H614.915L617.705 138.532H619.091L615.959 143.14L619.361 148H617.831L614.915 143.788ZM629.434 143.662H621.514C621.586 144.646 621.964 145.444 622.648 146.056C623.332 146.656 624.196 146.956 625.24 146.956C625.828 146.956 626.368 146.854 626.86 146.65C627.352 146.434 627.778 146.122 628.138 145.714L628.858 146.542C628.438 147.046 627.91 147.43 627.274 147.694C626.65 147.958 625.96 148.09 625.204 148.09C624.232 148.09 623.368 147.886 622.612 147.478C621.868 147.058 621.286 146.482 620.866 145.75C620.446 145.018 620.236 144.19 620.236 143.266C620.236 142.342 620.434 141.514 620.83 140.782C621.238 140.05 621.79 139.48 622.486 139.072C623.194 138.664 623.986 138.46 624.862 138.46C625.738 138.46 626.524 138.664 627.22 139.072C627.916 139.48 628.462 140.05 628.858 140.782C629.254 141.502 629.452 142.33 629.452 143.266L629.434 143.662ZM624.862 139.558C623.95 139.558 623.182 139.852 622.558 140.44C621.946 141.016 621.598 141.772 621.514 142.708H628.228C628.144 141.772 627.79 141.016 627.166 140.44C626.554 139.852 625.786 139.558 624.862 139.558ZM632.281 138.532H633.559V142.726H639.517V138.532H640.795V148H639.517V143.824H633.559V148H632.281V138.532ZM644.427 138.532H645.705V146.056L652.023 138.532H653.157V148H651.879V140.476L645.579 148H644.427V138.532ZM665.1 143.662H657.18C657.252 144.646 657.63 145.444 658.314 146.056C658.998 146.656 659.862 146.956 660.906 146.956C661.494 146.956 662.034 146.854 662.526 146.65C663.018 146.434 663.444 146.122 663.804 145.714L664.524 146.542C664.104 147.046 663.576 147.43 662.94 147.694C662.316 147.958 661.626 148.09 660.87 148.09C659.898 148.09 659.034 147.886 658.278 147.478C657.534 147.058 656.952 146.482 656.532 145.75C656.112 145.018 655.902 144.19 655.902 143.266C655.902 142.342 656.1 141.514 656.496 140.782C656.904 140.05 657.456 139.48 658.152 139.072C658.86 138.664 659.652 138.46 660.528 138.46C661.404 138.46 662.19 138.664 662.886 139.072C663.582 139.48 664.128 140.05 664.524 140.782C664.92 141.502 665.118 142.33 665.118 143.266L665.1 143.662ZM660.528 139.558C659.616 139.558 658.848 139.852 658.224 140.44C657.612 141.016 657.264 141.772 657.18 142.708H663.894C663.81 141.772 663.456 141.016 662.832 140.44C662.22 139.852 661.452 139.558 660.528 139.558Z" fill="#061150"/>
<circle cx="600" cy="46" r="6" fill="#0047FF"/>
<circle cx="600" cy="46" r="3" fill="white"/>
<path fill-rule="evenodd" clip-rule="evenodd" d="M1012 64C1021.94 64 1030 55.9411 1030 46H1192C1196.42 46 1200 49.5817 1200 54V170C1200 174.418 1196.42 178 1192 178H832C827.582 178 824 174.418 824 170V54C824 49.5817 827.582 46 832 46H994C994 55.9411 1002.06 64 1012 64Z" fill="#F0F6FC"/>
<path d="M1001.4 89.6V98H990.614V89.6H992.15V96.68H995.246V89.6H996.782V96.68H999.866V89.6H1001.4ZM1010.53 96.056H1006.33L1005.5 98H1003.89L1007.67 89.6H1009.21L1013 98H1011.37L1010.53 96.056ZM1010.01 94.832L1008.43 91.16L1006.86 94.832H1010.01ZM1021.19 90.92H1017.03L1017.04 98H1015.5V89.6H1021.2L1021.19 90.92ZM1031.39 92.816C1031.95 92.816 1032.44 92.924 1032.88 93.14C1033.32 93.348 1033.67 93.648 1033.91 94.04C1034.16 94.432 1034.29 94.884 1034.29 95.396C1034.29 95.94 1034.15 96.42 1033.88 96.836C1033.61 97.244 1033.24 97.56 1032.77 97.784C1032.31 98.008 1031.79 98.12 1031.21 98.12C1030.06 98.12 1029.17 97.76 1028.53 97.04C1027.89 96.32 1027.58 95.288 1027.58 93.944C1027.58 93 1027.75 92.196 1028.09 91.532C1028.44 90.86 1028.92 90.352 1029.53 90.008C1030.16 89.656 1030.88 89.48 1031.69 89.48C1032.13 89.48 1032.53 89.528 1032.91 89.624C1033.29 89.712 1033.62 89.844 1033.9 90.02L1033.33 91.196C1032.91 90.924 1032.38 90.788 1031.73 90.788C1030.92 90.788 1030.29 91.036 1029.83 91.532C1029.38 92.028 1029.15 92.744 1029.15 93.68V93.692C1029.4 93.404 1029.71 93.188 1030.1 93.044C1030.48 92.892 1030.91 92.816 1031.39 92.816ZM1031.13 96.896C1031.62 96.896 1032.01 96.768 1032.32 96.512C1032.62 96.248 1032.77 95.9 1032.77 95.468C1032.77 95.028 1032.62 94.68 1032.32 94.424C1032.01 94.168 1031.61 94.04 1031.09 94.04C1030.59 94.04 1030.18 94.176 1029.86 94.448C1029.55 94.72 1029.39 95.064 1029.39 95.48C1029.39 95.888 1029.54 96.228 1029.85 96.5C1030.16 96.764 1030.59 96.896 1031.13 96.896Z" fill="#2C1EF5"/>
<path d="M883.134 111.4V124H881.82V112.552H873.846V124H872.532V111.4H883.134ZM895.36 119.662H887.44C887.512 120.646 887.89 121.444 888.574 122.056C889.258 122.656 890.122 122.956 891.166 122.956C891.754 122.956 892.294 122.854 892.786 122.65C893.278 122.434 893.704 122.122 894.064 121.714L894.784 122.542C894.364 123.046 893.836 123.43 893.2 123.694C892.576 123.958 891.886 124.09 891.13 124.09C890.158 124.09 889.294 123.886 888.538 123.478C887.794 123.058 887.212 122.482 886.792 121.75C886.372 121.018 886.162 120.19 886.162 119.266C886.162 118.342 886.36 117.514 886.756 116.782C887.164 116.05 887.716 115.48 888.412 115.072C889.12 114.664 889.912 114.46 890.788 114.46C891.664 114.46 892.45 114.664 893.146 115.072C893.842 115.48 894.388 116.05 894.784 116.782C895.18 117.502 895.378 118.33 895.378 119.266L895.36 119.662ZM890.788 115.558C889.876 115.558 889.108 115.852 888.484 116.44C887.872 117.016 887.524 117.772 887.44 118.708H894.154C894.07 117.772 893.716 117.016 893.092 116.44C892.48 115.852 891.712 115.558 890.788 115.558ZM903.085 114.46C903.973 114.46 904.777 114.664 905.497 115.072C906.217 115.468 906.781 116.032 907.189 116.764C907.597 117.496 907.801 118.33 907.801 119.266C907.801 120.214 907.597 121.054 907.189 121.786C906.781 122.518 906.217 123.088 905.497 123.496C904.789 123.892 903.985 124.09 903.085 124.09C902.317 124.09 901.621 123.934 900.997 123.622C900.385 123.298 899.881 122.83 899.485 122.218V127.492H898.207V114.532H899.431V116.404C899.815 115.78 900.319 115.3 900.943 114.964C901.579 114.628 902.293 114.46 903.085 114.46ZM902.995 122.956C903.655 122.956 904.255 122.806 904.795 122.506C905.335 122.194 905.755 121.756 906.055 121.192C906.367 120.628 906.523 119.986 906.523 119.266C906.523 118.546 906.367 117.91 906.055 117.358C905.755 116.794 905.335 116.356 904.795 116.044C904.255 115.732 903.655 115.576 902.995 115.576C902.323 115.576 901.717 115.732 901.177 116.044C900.649 116.356 900.229 116.794 899.917 117.358C899.617 117.91 899.467 118.546 899.467 119.266C899.467 119.986 899.617 120.628 899.917 121.192C900.229 121.756 900.649 122.194 901.177 122.506C901.717 122.806 902.323 122.956 902.995 122.956ZM916.577 119.104C917.861 119.404 918.503 120.178 918.503 121.426C918.503 122.254 918.197 122.89 917.585 123.334C916.973 123.778 916.061 124 914.849 124H910.547V114.532H914.723C915.803 114.532 916.649 114.742 917.261 115.162C917.873 115.582 918.179 116.182 918.179 116.962C918.179 117.478 918.035 117.922 917.747 118.294C917.471 118.654 917.081 118.924 916.577 119.104ZM911.789 118.744H914.633C915.365 118.744 915.923 118.606 916.307 118.33C916.703 118.054 916.901 117.652 916.901 117.124C916.901 116.596 916.703 116.2 916.307 115.936C915.923 115.672 915.365 115.54 914.633 115.54H911.789V118.744ZM914.795 122.992C915.611 122.992 916.223 122.86 916.631 122.596C917.039 122.332 917.243 121.918 917.243 121.354C917.243 120.79 917.057 120.376 916.685 120.112C916.313 119.836 915.725 119.698 914.921 119.698H911.789V122.992H914.795ZM925.476 117.88C926.664 117.892 927.57 118.156 928.194 118.672C928.818 119.188 929.13 119.932 929.13 120.904C929.13 121.912 928.794 122.686 928.122 123.226C927.45 123.766 926.49 124.03 925.242 124.018L921.498 124V114.532H922.776V117.844L925.476 117.88ZM930.714 114.532H931.992V124H930.714V114.532ZM925.17 123.046C926.046 123.058 926.706 122.884 927.15 122.524C927.606 122.152 927.834 121.612 927.834 120.904C927.834 120.208 927.612 119.692 927.168 119.356C926.724 119.02 926.058 118.846 925.17 118.834L922.776 118.798V123.01L925.17 123.046ZM943.911 119.662H935.991C936.063 120.646 936.441 121.444 937.125 122.056C937.809 122.656 938.673 122.956 939.717 122.956C940.305 122.956 940.845 122.854 941.337 122.65C941.829 122.434 942.255 122.122 942.615 121.714L943.335 122.542C942.915 123.046 942.387 123.43 941.751 123.694C941.127 123.958 940.437 124.09 939.681 124.09C938.709 124.09 937.845 123.886 937.089 123.478C936.345 123.058 935.763 122.482 935.343 121.75C934.923 121.018 934.713 120.19 934.713 119.266C934.713 118.342 934.911 117.514 935.307 116.782C935.715 116.05 936.267 115.48 936.963 115.072C937.671 114.664 938.463 114.46 939.339 114.46C940.215 114.46 941.001 114.664 941.697 115.072C942.393 115.48 942.939 116.05 943.335 116.782C943.731 117.502 943.929 118.33 943.929 119.266L943.911 119.662ZM939.339 115.558C938.427 115.558 937.659 115.852 937.035 116.44C936.423 117.016 936.075 117.772 935.991 118.708H942.705C942.621 117.772 942.267 117.016 941.643 116.44C941.031 115.852 940.263 115.558 939.339 115.558ZM956.346 114.46C957.234 114.46 958.038 114.664 958.758 115.072C959.478 115.468 960.042 116.032 960.45 116.764C960.858 117.496 961.062 118.33 961.062 119.266C961.062 120.214 960.858 121.054 960.45 121.786C960.042 122.518 959.478 123.088 958.758 123.496C958.05 123.892 957.246 124.09 956.346 124.09C955.578 124.09 954.882 123.934 954.258 123.622C953.646 123.298 953.142 122.83 952.746 122.218V127.492H951.468V114.532H952.692V116.404C953.076 115.78 953.58 115.3 954.204 114.964C954.84 114.628 955.554 114.46 956.346 114.46ZM956.256 122.956C956.916 122.956 957.516 122.806 958.056 122.506C958.596 122.194 959.016 121.756 959.316 121.192C959.628 120.628 959.784 119.986 959.784 119.266C959.784 118.546 959.628 117.91 959.316 117.358C959.016 116.794 958.596 116.356 958.056 116.044C957.516 115.732 956.916 115.576 956.256 115.576C955.584 115.576 954.978 115.732 954.438 116.044C953.91 116.356 953.49 116.794 953.178 117.358C952.878 117.91 952.728 118.546 952.728 119.266C952.728 119.986 952.878 120.628 953.178 121.192C953.49 121.756 953.91 122.194 954.438 122.506C954.978 122.806 955.584 122.956 956.256 122.956ZM972.088 119.662H964.168C964.24 120.646 964.618 121.444 965.302 122.056C965.986 122.656 966.85 122.956 967.894 122.956C968.482 122.956 969.022 122.854 969.514 122.65C970.006 122.434 970.432 122.122 970.792 121.714L971.512 122.542C971.092 123.046 970.564 123.43 969.928 123.694C969.304 123.958 968.614 124.09 967.858 124.09C966.886 124.09 966.022 123.886 965.266 123.478C964.522 123.058 963.94 122.482 963.52 121.75C963.1 121.018 962.89 120.19 962.89 119.266C962.89 118.342 963.088 117.514 963.484 116.782C963.892 116.05 964.444 115.48 965.14 115.072C965.848 114.664 966.64 114.46 967.516 114.46C968.392 114.46 969.178 114.664 969.874 115.072C970.57 115.48 971.116 116.05 971.512 116.782C971.908 117.502 972.106 118.33 972.106 119.266L972.088 119.662ZM967.516 115.558C966.604 115.558 965.836 115.852 965.212 116.44C964.6 117.016 964.252 117.772 964.168 118.708H970.882C970.798 117.772 970.444 117.016 969.82 116.44C969.208 115.852 968.44 115.558 967.516 115.558ZM979.28 119.068C979.952 119.224 980.468 119.494 980.828 119.878C981.2 120.262 981.386 120.73 981.386 121.282C981.386 121.834 981.194 122.326 980.81 122.758C980.438 123.19 979.928 123.526 979.28 123.766C978.632 123.994 977.918 124.108 977.138 124.108C976.454 124.108 975.782 124.012 975.122 123.82C974.462 123.616 973.886 123.322 973.394 122.938L973.826 121.984C974.258 122.308 974.762 122.56 975.338 122.74C975.914 122.92 976.496 123.01 977.084 123.01C977.96 123.01 978.674 122.848 979.226 122.524C979.79 122.188 980.072 121.738 980.072 121.174C980.072 120.67 979.844 120.28 979.388 120.004C978.932 119.716 978.308 119.572 977.516 119.572H975.896V118.636H977.444C978.152 118.636 978.722 118.504 979.154 118.24C979.586 117.964 979.802 117.598 979.802 117.142C979.802 116.638 979.556 116.242 979.064 115.954C978.584 115.666 977.954 115.522 977.174 115.522C976.154 115.522 975.146 115.78 974.15 116.296L973.79 115.306C974.918 114.718 976.088 114.424 977.3 114.424C978.02 114.424 978.668 114.532 979.244 114.748C979.832 114.952 980.288 115.246 980.612 115.63C980.948 116.014 981.116 116.458 981.116 116.962C981.116 117.442 980.948 117.868 980.612 118.24C980.288 118.612 979.844 118.888 979.28 119.068ZM992.333 114.532L987.599 125.134C987.215 126.022 986.771 126.652 986.267 127.024C985.763 127.396 985.157 127.582 984.449 127.582C983.993 127.582 983.567 127.51 983.171 127.366C982.775 127.222 982.433 127.006 982.145 126.718L982.739 125.764C983.219 126.244 983.795 126.484 984.467 126.484C984.899 126.484 985.265 126.364 985.565 126.124C985.877 125.884 986.165 125.476 986.429 124.9L986.843 123.982L982.613 114.532H983.945L987.509 122.578L991.073 114.532H992.333ZM1001.64 114.532V124H1000.36V115.666H995.828L995.702 118.006C995.606 119.974 995.378 121.486 995.018 122.542C994.658 123.598 994.016 124.126 993.092 124.126C992.84 124.126 992.534 124.078 992.174 123.982L992.264 122.884C992.48 122.932 992.63 122.956 992.714 122.956C993.206 122.956 993.578 122.728 993.83 122.272C994.082 121.816 994.25 121.252 994.334 120.58C994.418 119.908 994.49 119.02 994.55 117.916L994.712 114.532H1001.64ZM1009.34 117.88C1010.53 117.892 1011.43 118.156 1012.04 118.672C1012.67 119.188 1012.98 119.932 1012.98 120.904C1012.98 121.912 1012.64 122.686 1011.97 123.226C1011.31 123.766 1010.35 124.03 1009.09 124.018L1005.28 124V114.532H1006.55V117.844L1009.34 117.88ZM1009.02 123.046C1009.9 123.058 1010.56 122.884 1011 122.524C1011.46 122.152 1011.68 121.612 1011.68 120.904C1011.68 120.208 1011.46 119.692 1011.02 119.356C1010.57 119.02 1009.91 118.846 1009.02 118.834L1006.55 118.798V123.01L1009.02 123.046ZM1021.13 115.666H1017.55V124H1016.27V115.666H1012.69V114.532H1021.13V115.666ZM1026.23 114.46C1027.47 114.46 1028.42 114.772 1029.08 115.396C1029.74 116.008 1030.07 116.92 1030.07 118.132V124H1028.84V122.524C1028.56 123.016 1028.13 123.4 1027.57 123.676C1027.01 123.952 1026.35 124.09 1025.59 124.09C1024.53 124.09 1023.69 123.838 1023.07 123.334C1022.44 122.83 1022.13 122.164 1022.13 121.336C1022.13 120.532 1022.42 119.884 1022.99 119.392C1023.58 118.9 1024.51 118.654 1025.78 118.654H1028.79V118.078C1028.79 117.262 1028.56 116.644 1028.11 116.224C1027.65 115.792 1026.98 115.576 1026.11 115.576C1025.51 115.576 1024.93 115.678 1024.38 115.882C1023.83 116.074 1023.35 116.344 1022.96 116.692L1022.38 115.738C1022.86 115.33 1023.44 115.018 1024.11 114.802C1024.78 114.574 1025.49 114.46 1026.23 114.46ZM1025.78 123.082C1026.5 123.082 1027.12 122.92 1027.64 122.596C1028.15 122.26 1028.54 121.78 1028.79 121.156V119.608H1025.82C1024.2 119.608 1023.39 120.172 1023.39 121.3C1023.39 121.852 1023.6 122.29 1024.02 122.614C1024.44 122.926 1025.03 123.082 1025.78 123.082ZM1040.13 115.666H1036.55V124H1035.27V115.666H1031.69V114.532H1040.13V115.666ZM1045.96 117.88C1047.14 117.892 1048.05 118.156 1048.67 118.672C1049.3 119.188 1049.61 119.932 1049.61 120.904C1049.61 121.912 1049.27 122.686 1048.6 123.226C1047.93 123.766 1046.97 124.03 1045.72 124.018L1041.98 124V114.532H1043.26V117.844L1045.96 117.88ZM1051.19 114.532H1052.47V124H1051.19V114.532ZM1045.65 123.046C1046.53 123.058 1047.19 122.884 1047.63 122.524C1048.09 122.152 1048.31 121.612 1048.31 120.904C1048.31 120.208 1048.09 119.692 1047.65 119.356C1047.2 119.02 1046.54 118.846 1045.65 118.834L1043.26 118.798V123.01L1045.65 123.046ZM1068.87 114.532L1064.13 125.134C1063.75 126.022 1063.31 126.652 1062.8 127.024C1062.3 127.396 1061.69 127.582 1060.98 127.582C1060.53 127.582 1060.1 127.51 1059.71 127.366C1059.31 127.222 1058.97 127.006 1058.68 126.718L1059.27 125.764C1059.75 126.244 1060.33 126.484 1061 126.484C1061.43 126.484 1061.8 126.364 1062.1 126.124C1062.41 125.884 1062.7 125.476 1062.96 124.9L1063.38 123.982L1059.15 114.532H1060.48L1064.04 122.578L1067.61 114.532H1068.87ZM1078.61 119.788H1076.56V124H1075.28V119.788H1073.23L1070.33 124H1068.8L1072.2 119.122L1069.07 114.532H1070.46L1073.23 118.69H1075.28V114.532H1076.56V118.69H1078.61L1081.4 114.532H1082.79L1079.66 119.14L1083.06 124H1081.53L1078.61 119.788ZM1093.13 119.662H1085.21C1085.28 120.646 1085.66 121.444 1086.35 122.056C1087.03 122.656 1087.89 122.956 1088.94 122.956C1089.53 122.956 1090.07 122.854 1090.56 122.65C1091.05 122.434 1091.48 122.122 1091.84 121.714L1092.56 122.542C1092.14 123.046 1091.61 123.43 1090.97 123.694C1090.35 123.958 1089.66 124.09 1088.9 124.09C1087.93 124.09 1087.07 123.886 1086.31 123.478C1085.57 123.058 1084.98 122.482 1084.56 121.75C1084.14 121.018 1083.93 120.19 1083.93 119.266C1083.93 118.342 1084.13 117.514 1084.53 116.782C1084.94 116.05 1085.49 115.48 1086.18 115.072C1086.89 114.664 1087.68 114.46 1088.56 114.46C1089.44 114.46 1090.22 114.664 1090.92 115.072C1091.61 115.48 1092.16 116.05 1092.56 116.782C1092.95 117.502 1093.15 118.33 1093.15 119.266L1093.13 119.662ZM1088.56 115.558C1087.65 115.558 1086.88 115.852 1086.26 116.44C1085.64 117.016 1085.3 117.772 1085.21 118.708H1091.93C1091.84 117.772 1091.49 117.016 1090.86 116.44C1090.25 115.852 1089.48 115.558 1088.56 115.558ZM1107.84 114.532V124H1106.56V120.058C1105.47 120.538 1104.39 120.778 1103.34 120.778C1102.2 120.778 1101.31 120.52 1100.67 120.004C1100.04 119.476 1099.72 118.69 1099.72 117.646V114.532H1101V117.574C1101 118.282 1101.22 118.822 1101.68 119.194C1102.14 119.554 1102.77 119.734 1103.57 119.734C1104.46 119.734 1105.45 119.5 1106.56 119.032V114.532H1107.84ZM1119.74 119.662H1111.82C1111.9 120.646 1112.27 121.444 1112.96 122.056C1113.64 122.656 1114.51 122.956 1115.55 122.956C1116.14 122.956 1116.68 122.854 1117.17 122.65C1117.66 122.434 1118.09 122.122 1118.45 121.714L1119.17 122.542C1118.75 123.046 1118.22 123.43 1117.58 123.694C1116.96 123.958 1116.27 124.09 1115.51 124.09C1114.54 124.09 1113.68 123.886 1112.92 123.478C1112.18 123.058 1111.6 122.482 1111.18 121.75C1110.76 121.018 1110.55 120.19 1110.55 119.266C1110.55 118.342 1110.74 117.514 1111.14 116.782C1111.55 116.05 1112.1 115.48 1112.8 115.072C1113.5 114.664 1114.3 114.46 1115.17 114.46C1116.05 114.46 1116.83 114.664 1117.53 115.072C1118.23 115.48 1118.77 116.05 1119.17 116.782C1119.56 117.502 1119.76 118.33 1119.76 119.266L1119.74 119.662ZM1115.17 115.558C1114.26 115.558 1113.49 115.852 1112.87 116.44C1112.26 117.016 1111.91 117.772 1111.82 118.708H1118.54C1118.45 117.772 1118.1 117.016 1117.48 116.44C1116.86 115.852 1116.1 115.558 1115.17 115.558ZM1127.47 114.46C1128.36 114.46 1129.16 114.664 1129.88 115.072C1130.6 115.468 1131.17 116.032 1131.57 116.764C1131.98 117.496 1132.19 118.33 1132.19 119.266C1132.19 120.214 1131.98 121.054 1131.57 121.786C1131.17 122.518 1130.6 123.088 1129.88 123.496C1129.17 123.892 1128.37 124.09 1127.47 124.09C1126.7 124.09 1126.01 123.934 1125.38 123.622C1124.77 123.298 1124.27 122.83 1123.87 122.218V127.492H1122.59V114.532H1123.82V116.404C1124.2 115.78 1124.7 115.3 1125.33 114.964C1125.96 114.628 1126.68 114.46 1127.47 114.46ZM1127.38 122.956C1128.04 122.956 1128.64 122.806 1129.18 122.506C1129.72 122.194 1130.14 121.756 1130.44 121.192C1130.75 120.628 1130.91 119.986 1130.91 119.266C1130.91 118.546 1130.75 117.91 1130.44 117.358C1130.14 116.794 1129.72 116.356 1129.18 116.044C1128.64 115.732 1128.04 115.576 1127.38 115.576C1126.71 115.576 1126.1 115.732 1125.56 116.044C1125.03 116.356 1124.61 116.794 1124.3 117.358C1124 117.91 1123.85 118.546 1123.85 119.266C1123.85 119.986 1124 120.628 1124.3 121.192C1124.61 121.756 1125.03 122.194 1125.56 122.506C1126.1 122.806 1126.71 122.956 1127.38 122.956ZM1143.21 119.662H1135.29C1135.36 120.646 1135.74 121.444 1136.43 122.056C1137.11 122.656 1137.97 122.956 1139.02 122.956C1139.61 122.956 1140.15 122.854 1140.64 122.65C1141.13 122.434 1141.56 122.122 1141.92 121.714L1142.64 122.542C1142.22 123.046 1141.69 123.43 1141.05 123.694C1140.43 123.958 1139.74 124.09 1138.98 124.09C1138.01 124.09 1137.15 123.886 1136.39 123.478C1135.65 123.058 1135.06 122.482 1134.64 121.75C1134.22 121.018 1134.01 120.19 1134.01 119.266C1134.01 118.342 1134.21 117.514 1134.61 116.782C1135.02 116.05 1135.57 115.48 1136.26 115.072C1136.97 114.664 1137.76 114.46 1138.64 114.46C1139.52 114.46 1140.3 114.664 1141 115.072C1141.69 115.48 1142.24 116.05 1142.64 116.782C1143.03 117.502 1143.23 118.33 1143.23 119.266L1143.21 119.662ZM1138.64 115.558C1137.73 115.558 1136.96 115.852 1136.34 116.44C1135.72 117.016 1135.38 117.772 1135.29 118.708H1142.01C1141.92 117.772 1141.57 117.016 1140.94 116.44C1140.33 115.852 1139.56 115.558 1138.64 115.558ZM1150.4 119.068C1151.07 119.224 1151.59 119.494 1151.95 119.878C1152.32 120.262 1152.51 120.73 1152.51 121.282C1152.51 121.834 1152.32 122.326 1151.93 122.758C1151.56 123.19 1151.05 123.526 1150.4 123.766C1149.75 123.994 1149.04 124.108 1148.26 124.108C1147.58 124.108 1146.9 124.012 1146.24 123.82C1145.58 123.616 1145.01 123.322 1144.52 122.938L1144.95 121.984C1145.38 122.308 1145.88 122.56 1146.46 122.74C1147.04 122.92 1147.62 123.01 1148.21 123.01C1149.08 123.01 1149.8 122.848 1150.35 122.524C1150.91 122.188 1151.19 121.738 1151.19 121.174C1151.19 120.67 1150.97 120.28 1150.51 120.004C1150.05 119.716 1149.43 119.572 1148.64 119.572H1147.02V118.636H1148.57C1149.27 118.636 1149.84 118.504 1150.28 118.24C1150.71 117.964 1150.92 117.598 1150.92 117.142C1150.92 116.638 1150.68 116.242 1150.19 115.954C1149.71 115.666 1149.08 115.522 1148.3 115.522C1147.28 115.522 1146.27 115.78 1145.27 116.296L1144.91 115.306C1146.04 114.718 1147.21 114.424 1148.42 114.424C1149.14 114.424 1149.79 114.532 1150.37 114.748C1150.95 114.952 1151.41 115.246 1151.73 115.63C1152.07 116.014 1152.24 116.458 1152.24 116.962C1152.24 117.442 1152.07 117.868 1151.73 118.24C1151.41 118.612 1150.97 118.888 1150.4 119.068ZM965.726 138.532V148H964.556V140.512L960.722 146.848H960.146L956.312 140.494V148H955.142V138.532H956.438L960.452 145.354L964.538 138.532H965.726ZM977.643 143.662H969.723C969.795 144.646 970.173 145.444 970.857 146.056C971.541 146.656 972.405 146.956 973.449 146.956C974.037 146.956 974.577 146.854 975.069 146.65C975.561 146.434 975.987 146.122 976.347 145.714L977.067 146.542C976.647 147.046 976.119 147.43 975.483 147.694C974.859 147.958 974.169 148.09 973.413 148.09C972.441 148.09 971.577 147.886 970.821 147.478C970.077 147.058 969.495 146.482 969.075 145.75C968.655 145.018 968.445 144.19 968.445 143.266C968.445 142.342 968.643 141.514 969.039 140.782C969.447 140.05 969.999 139.48 970.695 139.072C971.403 138.664 972.195 138.46 973.071 138.46C973.947 138.46 974.733 138.664 975.429 139.072C976.125 139.48 976.671 140.05 977.067 140.782C977.463 141.502 977.661 142.33 977.661 143.266L977.643 143.662ZM973.071 139.558C972.159 139.558 971.391 139.852 970.767 140.44C970.155 141.016 969.807 141.772 969.723 142.708H976.437C976.353 141.772 975.999 141.016 975.375 140.44C974.763 139.852 973.995 139.558 973.071 139.558ZM984.45 148.09C983.514 148.09 982.674 147.886 981.93 147.478C981.198 147.07 980.622 146.5 980.202 145.768C979.782 145.024 979.572 144.19 979.572 143.266C979.572 142.342 979.782 141.514 980.202 140.782C980.622 140.05 981.198 139.48 981.93 139.072C982.674 138.664 983.514 138.46 984.45 138.46C985.266 138.46 985.992 138.622 986.628 138.946C987.276 139.258 987.786 139.72 988.158 140.332L987.204 140.98C986.892 140.512 986.496 140.164 986.016 139.936C985.536 139.696 985.014 139.576 984.45 139.576C983.766 139.576 983.148 139.732 982.596 140.044C982.056 140.344 981.63 140.776 981.318 141.34C981.018 141.904 980.868 142.546 980.868 143.266C980.868 143.998 981.018 144.646 981.318 145.21C981.63 145.762 982.056 146.194 982.596 146.506C983.148 146.806 983.766 146.956 984.45 146.956C985.014 146.956 985.536 146.842 986.016 146.614C986.496 146.386 986.892 146.038 987.204 145.57L988.158 146.218C987.786 146.83 987.276 147.298 986.628 147.622C985.98 147.934 985.254 148.09 984.45 148.09ZM997.588 138.532V148H996.418V144.868H993.448H993.088L990.892 148H989.506L991.864 144.688C991.132 144.484 990.568 144.136 990.172 143.644C989.776 143.152 989.578 142.528 989.578 141.772C989.578 140.716 989.938 139.912 990.658 139.36C991.378 138.808 992.362 138.532 993.61 138.532H997.588ZM990.874 141.808C990.874 143.212 991.768 143.914 993.556 143.914H996.418V139.666H993.646C991.798 139.666 990.874 140.38 990.874 141.808ZM1011.1 146.884V150.376H1009.89V148H1001.23V138.532H1002.51V146.884H1008.29V138.532H1009.57V146.884H1011.1ZM1023.13 138.46C1024.01 138.46 1024.82 138.664 1025.54 139.072C1026.26 139.468 1026.82 140.032 1027.23 140.764C1027.64 141.496 1027.84 142.33 1027.84 143.266C1027.84 144.214 1027.64 145.054 1027.23 145.786C1026.82 146.518 1026.26 147.088 1025.54 147.496C1024.83 147.892 1024.03 148.09 1023.13 148.09C1022.36 148.09 1021.66 147.934 1021.04 147.622C1020.43 147.298 1019.92 146.83 1019.53 146.218V151.492H1018.25V138.532H1019.47V140.404C1019.86 139.78 1020.36 139.3 1020.98 138.964C1021.62 138.628 1022.33 138.46 1023.13 138.46ZM1023.04 146.956C1023.7 146.956 1024.3 146.806 1024.84 146.506C1025.38 146.194 1025.8 145.756 1026.1 145.192C1026.41 144.628 1026.56 143.986 1026.56 143.266C1026.56 142.546 1026.41 141.91 1026.1 141.358C1025.8 140.794 1025.38 140.356 1024.84 140.044C1024.3 139.732 1023.7 139.576 1023.04 139.576C1022.36 139.576 1021.76 139.732 1021.22 140.044C1020.69 140.356 1020.27 140.794 1019.96 141.358C1019.66 141.91 1019.51 142.546 1019.51 143.266C1019.51 143.986 1019.66 144.628 1019.96 145.192C1020.27 145.756 1020.69 146.194 1021.22 146.506C1021.76 146.806 1022.36 146.956 1023.04 146.956ZM1033.79 138.46C1035.03 138.46 1035.98 138.772 1036.64 139.396C1037.3 140.008 1037.63 140.92 1037.63 142.132V148H1036.4V146.524C1036.11 147.016 1035.69 147.4 1035.12 147.676C1034.57 147.952 1033.91 148.09 1033.14 148.09C1032.09 148.09 1031.25 147.838 1030.62 147.334C1030 146.83 1029.69 146.164 1029.69 145.336C1029.69 144.532 1029.98 143.884 1030.55 143.392C1031.14 142.9 1032.07 142.654 1033.34 142.654H1036.35V142.078C1036.35 141.262 1036.12 140.644 1035.66 140.224C1035.21 139.792 1034.54 139.576 1033.67 139.576C1033.07 139.576 1032.49 139.678 1031.94 139.882C1031.39 140.074 1030.91 140.344 1030.52 140.692L1029.94 139.738C1030.42 139.33 1031 139.018 1031.67 138.802C1032.34 138.574 1033.05 138.46 1033.79 138.46ZM1033.34 147.082C1034.06 147.082 1034.68 146.92 1035.2 146.596C1035.71 146.26 1036.1 145.78 1036.35 145.156V143.608H1033.38C1031.76 143.608 1030.95 144.172 1030.95 145.3C1030.95 145.852 1031.16 146.29 1031.58 146.614C1032 146.926 1032.59 147.082 1033.34 147.082ZM1045.62 138.766C1046.49 138.766 1047.27 138.964 1047.96 139.36C1048.65 139.744 1049.19 140.29 1049.58 140.998C1049.96 141.694 1050.15 142.492 1050.15 143.392C1050.15 144.316 1049.95 145.138 1049.54 145.858C1049.15 146.566 1048.59 147.118 1047.87 147.514C1047.15 147.91 1046.32 148.108 1045.38 148.108C1043.81 148.108 1042.59 147.556 1041.73 146.452C1040.87 145.348 1040.43 143.824 1040.43 141.88C1040.43 139.852 1040.82 138.298 1041.59 137.218C1042.37 136.138 1043.58 135.406 1045.22 135.022L1049.47 134.05L1049.69 135.22L1045.69 136.138C1044.33 136.438 1043.34 136.972 1042.7 137.74C1042.07 138.496 1041.72 139.618 1041.66 141.106C1042.04 140.374 1042.58 139.804 1043.26 139.396C1043.94 138.976 1044.73 138.766 1045.62 138.766ZM1045.42 147.046C1046.08 147.046 1046.67 146.896 1047.18 146.596C1047.71 146.284 1048.12 145.852 1048.41 145.3C1048.71 144.748 1048.86 144.124 1048.86 143.428C1048.86 142.732 1048.71 142.12 1048.43 141.592C1048.14 141.064 1047.73 140.656 1047.2 140.368C1046.69 140.068 1046.09 139.918 1045.42 139.918C1044.75 139.918 1044.15 140.068 1043.62 140.368C1043.1 140.656 1042.7 141.064 1042.4 141.592C1042.11 142.12 1041.96 142.732 1041.96 143.428C1041.96 144.124 1042.11 144.748 1042.4 145.3C1042.7 145.852 1043.11 146.284 1043.64 146.596C1044.17 146.896 1044.76 147.046 1045.42 147.046ZM1056.8 148.09C1055.89 148.09 1055.07 147.886 1054.33 147.478C1053.6 147.058 1053.03 146.482 1052.61 145.75C1052.19 145.018 1051.98 144.19 1051.98 143.266C1051.98 142.342 1052.19 141.514 1052.61 140.782C1053.03 140.05 1053.6 139.48 1054.33 139.072C1055.07 138.664 1055.89 138.46 1056.8 138.46C1057.71 138.46 1058.53 138.664 1059.27 139.072C1060 139.48 1060.57 140.05 1060.98 140.782C1061.4 141.514 1061.61 142.342 1061.61 143.266C1061.61 144.19 1061.4 145.018 1060.98 145.75C1060.57 146.482 1060 147.058 1059.27 147.478C1058.53 147.886 1057.71 148.09 1056.8 148.09ZM1056.8 146.956C1057.47 146.956 1058.07 146.806 1058.6 146.506C1059.14 146.194 1059.56 145.756 1059.86 145.192C1060.16 144.628 1060.31 143.986 1060.31 143.266C1060.31 142.546 1060.16 141.904 1059.86 141.34C1059.56 140.776 1059.14 140.344 1058.6 140.044C1058.07 139.732 1057.47 139.576 1056.8 139.576C1056.13 139.576 1055.52 139.732 1054.98 140.044C1054.45 140.344 1054.03 140.776 1053.72 141.34C1053.42 141.904 1053.27 142.546 1053.27 143.266C1053.27 143.986 1053.42 144.628 1053.72 145.192C1054.03 145.756 1054.45 146.194 1054.98 146.506C1055.52 146.806 1056.13 146.956 1056.8 146.956ZM1070.65 139.666H1067.06V148H1065.79V139.666H1062.2V138.532H1070.65V139.666Z" fill="#061150"/>
<circle cx="1012" cy="46" r="6" fill="#0047FF"/>
<circle cx="1012" cy="46" r="3" fill="white"/>
<line x1="189" y1="26" x2="189" y2="14" stroke="#C4C7D1" stroke-width="2" stroke-linecap="round" stroke-dasharray="1 5"/>
<line x1="1012" y1="10" x2="189" y2="10" stroke="#C4C7D1" stroke-width="2" stroke-linecap="round" stroke-dasharray="1 5"/>
<line x1="600" y1="26" x2="600" y2="17" stroke="#C4C7D1" stroke-width="2" stroke-linecap="round" stroke-dasharray="1 5"/>
<line x1="1012" y1="26" x2="1012" y2="14" stroke="#C4C7D1" stroke-width="2" stroke-linecap="round" stroke-dasharray="1 5"/>
<path d="M388.744 15.5892C388.419 15.2638 388.419 14.7362 388.744 14.4107L393.155 9.99998L388.744 5.58923C388.419 5.2638 388.419 4.73616 388.744 4.41072C389.07 4.08529 389.597 4.08529 389.923 4.41072L394.923 9.41072C395.248 9.73616 395.248 10.2638 394.923 10.5892L389.923 15.5892C389.597 15.9147 389.07 15.9147 388.744 15.5892Z" fill="#C4C7D1"/>
<path d="M804.744 15.5892C804.419 15.2638 804.419 14.7362 804.744 14.4107L809.155 9.99998L804.744 5.58923C804.419 5.2638 804.419 4.73616 804.744 4.41072C805.07 4.08529 805.597 4.08529 805.923 4.41072L810.923 9.41072C811.248 9.73616 811.248 10.2638 810.923 10.5892L805.923 15.5892C805.597 15.9147 805.07 15.9147 804.744 15.5892Z" fill="#C4C7D1"/>
</svg>
